  0
SECTION
  2
HEADER
  9
$ACADVER
  1
AC1014
  9
$ACADMAINTVER
 70
     9
  9
$DWGCODEPAGE
  3
ANSI_1252
  9
$INSBASE
 10
0.0
 20
0.0
 30
0.0
  9
$EXTMIN
 10
-2.905
 20
-4.023
 30
0.0
  9
$EXTMAX
 10
14.405
 20
0.837
 30
0.0
  9
$LIMMIN
 10
-2.905
 20
-4.023
  9
$LIMMAX
 10
14.405
 20
0.837
  9
$ORTHOMODE
 70
     0
  9
$REGENMODE
 70
     1
  9
$FILLMODE
 70
     1
  9
$QTEXTMODE
 70
     0
  9
$MIRRTEXT
 70
     1
  9
$DRAGMODE
 70
     2
  9
$LTSCALE
 40
1.0
  9
$OSMODE
 70
    37
  9
$ATTMODE
 70
     1
  9
$TEXTSIZE
 40
0.2
  9
$TRACEWID
 40
0.05
  9
$TEXTSTYLE
  7
STANDARD
  9
$CLAYER
  8
PLATE_TOP-LOCK
  9
$CELTYPE
  6
BYLAYER
  9
$CECOLOR
 62
   256
  9
$CELTSCALE
 40
1.0
  9
$DELOBJ
 70
     1
  9
$DISPSILH
 70
     0
  9
$DIMSCALE
 40
1.0
  9
$DIMASZ
 40
0.18
  9
$DIMEXO
 40
0.0625
  9
$DIMDLI
 40
0.38
  9
$DIMRND
 40
0.0
  9
$DIMDLE
 40
0.0
  9
$DIMEXE
 40
0.18
  9
$DIMTP
 40
0.0
  9
$DIMTM
 40
0.0
  9
$DIMTXT
 40
0.18
  9
$DIMCEN
 40
0.09
  9
$DIMTSZ
 40
0.0
  9
$DIMTOL
 70
     0
  9
$DIMLIM
 70
     0
  9
$DIMTIH
 70
     1
  9
$DIMTOH
 70
     1
  9
$DIMSE1
 70
     0
  9
$DIMSE2
 70
     0
  9
$DIMTAD
 70
     0
  9
$DIMZIN
 70
     0
  9
$DIMBLK
  1

  9
$DIMASO
 70
     1
  9
$DIMSHO
 70
     1
  9
$DIMPOST
  1

  9
$DIMAPOST
  1

  9
$DIMALT
 70
     0
  9
$DIMALTD
 70
     2
  9
$DIMALTF
 40
25.4
  9
$DIMLFAC
 40
1.0
  9
$DIMTOFL
 70
     0
  9
$DIMTVP
 40
0.0
  9
$DIMTIX
 70
     0
  9
$DIMSOXD
 70
     0
  9
$DIMSAH
 70
     0
  9
$DIMBLK1
  1

  9
$DIMBLK2
  1

  9
$DIMSTYLE
  2
STANDARD
  9
$DIMCLRD
 70
     0
  9
$DIMCLRE
 70
     0
  9
$DIMCLRT
 70
     0
  9
$DIMTFAC
 40
1.0
  9
$DIMGAP
 40
0.09
  9
$DIMJUST
 70
     0
  9
$DIMSD1
 70
     0
  9
$DIMSD2
 70
     0
  9
$DIMTOLJ
 70
     1
  9
$DIMTZIN
 70
     0
  9
$DIMALTZ
 70
     0
  9
$DIMALTTZ
 70
     0
  9
$DIMFIT
 70
     5
  9
$DIMUPT
 70
     0
  9
$DIMUNIT
 70
     2
  9
$DIMDEC
 70
     4
  9
$DIMTDEC
 70
     4
  9
$DIMALTU
 70
     2
  9
$DIMALTTD
 70
     2
  9
$DIMTXSTY
  7
STANDARD
  9
$DIMAUNIT
 70
     0
  9
$LUNITS
 70
     2
  9
$LUPREC
 70
     6
  9
$SKETCHINC
 40
0.1
  9
$FILLETRAD
 40
0.5
  9
$AUNITS
 70
     0
  9
$AUPREC
 70
     0
  9
$MENU
  1
.
  9
$ELEVATION
 40
0.0
  9
$PELEVATION
 40
0.0
  9
$THICKNESS
 40
0.0
  9
$LIMCHECK
 70
     0
  9
$CHAMFERA
 40
0.5
  9
$CHAMFERB
 40
0.5
  9
$CHAMFERC
 40
1.0
  9
$CHAMFERD
 40
0.0
  9
$SKPOLY
 70
     0
  9
$TDCREATE
 40
2456972.811111111
  9
$TDUPDATE
 40
2456972.811118148
  9
$TDINDWG
 40
0.0
  9
$TDUSRTIMER
 40
0.0
  9
$USRTIMER
 70
     1
  9
$ANGBASE
 50
0.0
  9
$ANGDIR
 70
     0
  9
$PDMODE
 70
     0
  9
$PDSIZE
 40
0.0
  9
$PLINEWID
 40
0.0
  9
$COORDS
 70
     1
  9
$SPLFRAME
 70
     0
  9
$SPLINETYPE
 70
     6
  9
$SPLINESEGS
 70
     8
  9
$ATTDIA
 70
     0
  9
$ATTREQ
 70
     1
  9
$HANDLING
 70
     1
  9
$HANDSEED
  5
141
  9
$SURFTAB1
 70
     6
  9
$SURFTAB2
 70
     6
  9
$SURFTYPE
 70
     6
  9
$SURFU
 70
     6
  9
$SURFV
 70
     6
  9
$UCSNAME
  2

  9
$UCSORG
 10
0.0
 20
0.0
 30
0.0
  9
$UCSXDIR
 10
1.0
 20
0.0
 30
0.0
  9
$UCSYDIR
 10
0.0
 20
1.0
 30
0.0
  9
$PUCSNAME
  2

  9
$PUCSORG
 10
0.0
 20
0.0
 30
0.0
  9
$PUCSXDIR
 10
1.0
 20
0.0
 30
0.0
  9
$PUCSYDIR
 10
0.0
 20
1.0
 30
0.0
  9
$USERI1
 70
     0
  9
$USERI2
 70
     0
  9
$USERI3
 70
     0
  9
$USERI4
 70
     0
  9
$USERI5
 70
     0
  9
$USERR1
 40
0.0
  9
$USERR2
 40
0.0
  9
$USERR3
 40
0.0
  9
$USERR4
 40
0.0
  9
$USERR5
 40
0.0
  9
$WORLDVIEW
 70
     1
  9
$SHADEDGE
 70
     3
  9
$SHADEDIF
 70
    70
  9
$TILEMODE
 70
     1
  9
$MAXACTVP
 70
    48
  9
$PINSBASE
 10
0.0
 20
0.0
 30
0.0
  9
$PLIMCHECK
 70
     0
  9
$PEXTMIN
 10
1.000000000000000E+20
 20
1.000000000000000E+20
 30
1.000000000000000E+20
  9
$PEXTMAX
 10
-1.000000000000000E+20
 20
-1.000000000000000E+20
 30
-1.000000000000000E+20
  9
$PLIMMIN
 10
0.0
 20
0.0
  9
$PLIMMAX
 10
12.0
 20
9.0
  9
$UNITMODE
 70
     0
  9
$VISRETAIN
 70
     1
  9
$PLINEGEN
 70
     0
  9
$PSLTSCALE
 70
     1
  9
$TREEDEPTH
 70
  3020
  9
$PICKSTYLE
 70
     1
  9
$CMLSTYLE
  2
STANDARD
  9
$CMLJUST
 70
     0
  9
$CMLSCALE
 40
1.0
  9
$PROXYGRAPHICS
 70
     1
  9
$MEASUREMENT
 70
     0
  0
ENDSEC
  0
SECTION
  2
CLASSES
  0
CLASS
  1
SCALE
  2
AcDbScale
  3
ObjectDBX Classes
 90
     1153
280
     0
281
     0
  0
CLASS
  1
VISUALSTYLE
  2
AcDbVisualStyle
  3
ObjectDBX Classes
 90
     4095
280
     0
281
     0
  0
CLASS
  1
MATERIAL
  2
AcDbMaterial
  3
ObjectDBX Classes
 90
     1153
280
     0
281
     0
  0
CLASS
  1
DICTIONARYVAR
  2
AcDbDictionaryVar
  3
ObjectDBX Classes
 90
        0
280
     0
281
     0
  0
CLASS
  1
XRECORD
  2
AcDbXrecord
  3
ObjectDBX Classes
 90
        0
280
     0
281
     0
  0
CLASS
  1
LWPOLYLINE
  2
AcDbPolyline
  3
ObjectDBX Classes
 90
        0
280
     0
281
     1
  0
CLASS
  1
HATCH
  2
AcDbHatch
  3
ObjectDBX Classes
 90
        0
280
     0
281
     1
  0
CLASS
  1
ACDBPLACEHOLDER
  2
AcDbPlaceHolder
  3
ObjectDBX Classes
 90
        0
280
     0
281
     0
  0
CLASS
  1
LAYOUT
  2
AcDbLayout
  3
ObjectDBX Classes
 90
        0
280
     0
281
     0
  0
ENDSEC
  0
SECTION
  2
TABLES
  0
TABLE
  2
VPORT
  5
8
102
{ACAD_XDICTIONARY
360
138
102
}
330
0
100
AcDbSymbolTable
 70
     1
  0
VPORT
  5
1E
330
8
100
AcDbSymbolTableRecord
100
AcDbViewportTableRecord
  2
*ACTIVE
 70
     0
 10
0.0
 20
0.0
 11
1.0
 21
1.0
 12
5.75
 22
-1.593
 13
0.0
 23
0.0
 14
0.25
 24
0.25
 15
0.25
 25
0.25
 16
0.0
 26
0.0
 36
1.0
 17
0.0
 27
0.0
 37
0.0
 40
4.86
 41
3.561728
 42
50.0
 43
0.0
 44
0.0
 50
0.0
 51
0.0
 71
     0
 72
   100
 73
     1
 74
     1
 75
     0
 76
     0
 77
     0
 78
     0
  0
ENDTAB
  0
TABLE
  2
LTYPE
  5
5
330
0
100
AcDbSymbolTable
 70
     1
  0
LTYPE
  5
12
330
5
100
AcDbSymbolTableRecord
100
AcDbLinetypeTableRecord
  2
BYBLOCK
 70
     0
  3

 72
    65
 73
     0
 40
0.0
  0
LTYPE
  5
13
330
5
100
AcDbSymbolTableRecord
100
AcDbLinetypeTableRecord
  2
BYLAYER
 70
     0
  3

 72
    65
 73
     0
 40
0.0
  0
LTYPE
  5
14
330
5
100
AcDbSymbolTableRecord
100
AcDbLinetypeTableRecord
  2
CONTINUOUS
 70
     0
  3
Solid line
 72
    65
 73
     0
 40
0.0
  0
ENDTAB
  0
TABLE
  2
LAYER
  5
2
330
0
100
AcDbSymbolTable
 70
     2
  0
LAYER
  5
E
330
2
100
AcDbSymbolTableRecord
100
AcDbLayerTableRecord
  2
0
 70
     0
 62
     7
  6
CONTINUOUS
  0
LAYER
  5
20
330
2
100
AcDbSymbolTableRecord
100
AcDbLayerTableRecord
  2
PLATE_TOP-LOCK
 70
     0
 62
     7
  6
CONTINUOUS
  0
ENDTAB
  0
TABLE
  2
STYLE
  5
3
330
0
100
AcDbSymbolTable
 70
     1
  0
STYLE
  5
F
330
3
100
AcDbSymbolTableRecord
100
AcDbTextStyleTableRecord
  2
STANDARD
 70
     0
 40
0.0
 41
1.0
 50
0.0
 71
     0
 42
0.2
  3
txt
  4

  0
ENDTAB
  0
TABLE
  2
VIEW
  5
6
330
0
100
AcDbSymbolTable
 70
     0
  0
ENDTAB
  0
TABLE
  2
UCS
  5
7
330
0
100
AcDbSymbolTable
 70
     0
  0
ENDTAB
  0
TABLE
  2
APPID
  5
9
330
0
100
AcDbSymbolTable
 70
     1
  0
APPID
  5
10
330
9
100
AcDbSymbolTableRecord
100
AcDbRegAppTableRecord
  2
ACAD
 70
     0
  0
ENDTAB
  0
TABLE
  2
DIMSTYLE
  5
A
330
0
100
AcDbSymbolTable
 70
     1
  0
DIMSTYLE
105
1D
330
A
100
AcDbSymbolTableRecord
100
AcDbDimStyleTableRecord
  2
STANDARD
 70
     0
  3

  4

  5

  6

  7

 40
1.0
 41
0.18
 42
0.0625
 43
0.38
 44
0.18
 45
0.0
 46
0.0
 47
0.0
 48
0.0
140
0.18
141
0.09
142
0.0
143
25.4
144
1.0
145
0.0
146
1.0
147
0.09
 71
     0
 72
     0
 73
     1
 74
     1
 75
     0
 76
     0
 77
     0
 78
     0
170
     0
171
     2
172
     0
173
     0
174
     0
175
     0
176
     0
177
     0
178
     0
270
     2
271
     4
272
     4
273
     2
274
     2
340
F
275
     0
280
     0
281
     0
282
     0
283
     1
284
     0
285
     0
286
     0
287
     3
288
     0
  0
ENDTAB
  0
TABLE
  2
BLOCK_RECORD
  5
1
330
0
100
AcDbSymbolTable
 70
     0
  0
BLOCK_RECORD
  5
18
330
1
100
AcDbSymbolTableRecord
100
AcDbBlockTableRecord
  2
*MODEL_SPACE
  0
BLOCK_RECORD
  5
15
330
1
100
AcDbSymbolTableRecord
100
AcDbBlockTableRecord
  2
*PAPER_SPACE
  0
ENDTAB
  0
ENDSEC
  0
SECTION
  2
BLOCKS
  0
BLOCK
  5
19
330
18
100
AcDbEntity
  8
0
100
AcDbBlockBegin
  2
*MODEL_SPACE
 70
     0
 10
0.0
 20
0.0
 30
0.0
  3
*MODEL_SPACE
  1

  0
ENDBLK
  5
1A
330
18
100
AcDbEntity
  8
0
100
AcDbBlockEnd
  0
BLOCK
  5
16
330
15
100
AcDbEntity
 67
     1
  8
0
100
AcDbBlockBegin
  2
*PAPER_SPACE
 70
     0
 10
0.0
 20
0.0
 30
0.0
  3
*PAPER_SPACE
  1

  0
ENDBLK
  5
17
330
15
100
AcDbEntity
 67
     1
  8
0
100
AcDbBlockEnd
  0
ENDSEC
  0
SECTION
  2
ENTITIES
  0
LINE
  5
21
330
18
100
AcDbEntity
  8
PLATE_TOP-LOCK
100
AcDbLine
 10
-2.9
 20
-4.018
 30
0.0
 11
14.4
 21
-4.018
 31
0.0
  0
LINE
  5
22
330
18
100
AcDbEntity
  8
PLATE_TOP-LOCK
100
AcDbLine
 10
-2.9
 20
0.832
 30
0.0
 11
14.4
 21
0.832
 31
0.0
  0
LINE
  5
23
330
18
100
AcDbEntity
  8
PLATE_TOP-LOCK
100
AcDbLine
 10
14.4
 20
-4.018
 30
0.0
 11
14.4
 21
0.832
 31
0.0
  0
LINE
  5
24
330
18
100
AcDbEntity
  8
PLATE_TOP-LOCK
100
AcDbLine
 10
-2.9
 20
-4.018
 30
0.0
 11
-2.9
 21
0.832
 31
0.0
  0
ELLIPSE
  5
25
330
18
100
AcDbEntity
  8
PLATE_TOP-LOCK
100
AcDbEllipse
 10
-1.85
 20
-0.023
 30
0.0
 11
0.0
 21
0.236
 31
0.0
210
0.0
220
0.0
230
1.0
 40
1.0
 41
0.0
 42
6.283185307179586
  0
ELLIPSE
  5
26
330
18
100
AcDbEntity
  8
PLATE_TOP-LOCK
100
AcDbEllipse
 10
-1.85
 20
-0.423
 30
0.0
 11
0.0
 21
0.06
 31
0.0
210
0.0
220
0.0
230
1.0
 40
0.8
 41
0.0
 42
6.283185307179586
  0
ELLIPSE
  5
27
330
18
100
AcDbEntity
  8
PLATE_TOP-LOCK
100
AcDbEllipse
 10
-1.1
 20
-0.023
 30
0.0
 11
0.236
 21
0.0
 31
0.0
210
0.0
220
0.0
230
1.0
 40
1.0
 41
0.0
 42
6.283185307179586
  0
ELLIPSE
  5
28
330
18
100
AcDbEntity
  8
PLATE_TOP-LOCK
100
AcDbEllipse
 10
-1.1
 20
-0.423
 30
0.0
 11
0.0
 21
0.06
 31
0.0
210
0.0
220
0.0
230
1.0
 40
0.8
 41
0.0
 42
6.283185307179586
  0
CIRCLE
  5
29
330
18
100
AcDbEntity
  8
PLATE_TOP-LOCK
100
AcDbCircle
 10
0.0
 20
-0.023
 30
0.0
 40
0.236
  0
ELLIPSE
  5
2A
330
18
100
AcDbEntity
  8
PLATE_TOP-LOCK
100
AcDbEllipse
 10
0.0
 20
-0.423
 30
0.0
 11
0.0
 21
0.06
 31
0.0
210
0.0
220
0.0
230
1.0
 40
0.8
 41
0.0
 42
6.283185307179586
  0
CIRCLE
  5
2B
330
18
100
AcDbEntity
  8
PLATE_TOP-LOCK
100
AcDbCircle
 10
0.75
 20
-0.023
 30
0.0
 40
0.236
  0
ELLIPSE
  5
2C
330
18
100
AcDbEntity
  8
PLATE_TOP-LOCK
100
AcDbEllipse
 10
0.75
 20
-0.423
 30
0.0
 11
0.0
 21
0.06
 31
0.0
210
0.0
220
0.0
230
1.0
 40
0.8
 41
0.0
 42
6.283185307179586
  0
CIRCLE
  5
2D
330
18
100
AcDbEntity
  8
PLATE_TOP-LOCK
100
AcDbCircle
 10
1.5
 20
-0.023
 30
0.0
 40
0.236
  0
ELLIPSE
  5
2E
330
18
100
AcDbEntity
  8
PLATE_TOP-LOCK
100
AcDbEllipse
 10
1.5
 20
-0.423
 30
0.0
 11
0.0
 21
0.06
 31
0.0
210
0.0
220
0.0
230
1.0
 40
0.8
 41
0.0
 42
6.283185307179586
  0
ELLIPSE
  5
2F
330
18
100
AcDbEntity
  8
PLATE_TOP-LOCK
100
AcDbEllipse
 10
-1.85
 20
-0.8355
 30
0.0
 11
0.0
 21
0.236
 31
0.0
210
0.0
220
0.0
230
1.0
 40
1.0
 41
0.0
 42
6.283185307179586
  0
ELLIPSE
  5
30
330
18
100
AcDbEntity
  8
PLATE_TOP-LOCK
100
AcDbEllipse
 10
-1.85
 20
-1.2355
 30
0.0
 11
0.0
 21
0.06
 31
0.0
210
0.0
220
0.0
230
1.0
 40
0.8
 41
0.0
 42
6.283185307179586
  0
ELLIPSE
  5
31
330
18
100
AcDbEntity
  8
PLATE_TOP-LOCK
100
AcDbEllipse
 10
-1.1
 20
-0.8355
 30
0.0
 11
0.236
 21
0.0
 31
0.0
210
0.0
220
0.0
230
1.0
 40
1.0
 41
0.0
 42
6.283185307179586
  0
ELLIPSE
  5
32
330
18
100
AcDbEntity
  8
PLATE_TOP-LOCK
100
AcDbEllipse
 10
-1.1
 20
-1.2355
 30
0.0
 11
0.0
 21
0.06
 31
0.0
210
0.0
220
0.0
230
1.0
 40
0.8
 41
0.0
 42
6.283185307179586
  0
CIRCLE
  5
33
330
18
100
AcDbEntity
  8
PLATE_TOP-LOCK
100
AcDbCircle
 10
0.2
 20
-0.8355
 30
0.0
 40
0.236
  0
ELLIPSE
  5
34
330
18
100
AcDbEntity
  8
PLATE_TOP-LOCK
100
AcDbEllipse
 10
0.2
 20
-1.2355
 30
0.0
 11
0.0
 21
0.06
 31
0.0
210
0.0
220
0.0
230
1.0
 40
0.8
 41
0.0
 42
6.283185307179586
  0
CIRCLE
  5
35
330
18
100
AcDbEntity
  8
PLATE_TOP-LOCK
100
AcDbCircle
 10
1.125
 20
-0.8355
 30
0.0
 40
0.236
  0
ELLIPSE
  5
36
330
18
100
AcDbEntity
  8
PLATE_TOP-LOCK
100
AcDbEllipse
 10
1.125
 20
-1.2355
 30
0.0
 11
0.0
 21
0.06
 31
0.0
210
0.0
220
0.0
230
1.0
 40
0.8
 41
0.0
 42
6.283185307179586
  0
ELLIPSE
  5
37
330
18
100
AcDbEntity
  8
PLATE_TOP-LOCK
100
AcDbEllipse
 10
1.875
 20
-0.8355
 30
0.0
 11
0.236
 21
0.0
 31
0.0
210
0.0
220
0.0
230
1.0
 40
1.0
 41
0.0
 42
6.283185307179586
  0
ELLIPSE
  5
38
330
18
100
AcDbEntity
  8
PLATE_TOP-LOCK
100
AcDbEllipse
 10
1.875
 20
-1.2355
 30
0.0
 11
0.0
 21
0.06
 31
0.0
210
0.0
220
0.0
230
1.0
 40
0.8
 41
0.0
 42
6.283185307179586
  0
ELLIPSE
  5
39
330
18
100
AcDbEntity
  8
PLATE_TOP-LOCK
100
AcDbEllipse
 10
2.0625
 20
-1.648
 30
0.0
 11
0.236
 21
0.0
 31
0.0
210
0.0
220
0.0
230
1.0
 40
1.0
 41
0.0
 42
6.283185307179586
  0
ELLIPSE
  5
3A
330
18
100
AcDbEntity
  8
PLATE_TOP-LOCK
100
AcDbEllipse
 10
2.0625
 20
-2.048
 30
0.0
 11
0.0
 21
0.06
 31
0.0
210
0.0
220
0.0
230
1.0
 40
0.8
 41
0.0
 42
6.283185307179586
  0
CIRCLE
  5
3B
330
18
100
AcDbEntity
  8
PLATE_TOP-LOCK
100
AcDbCircle
 10
1.3125
 20
-1.648
 30
0.0
 40
0.236
  0
ELLIPSE
  5
3C
330
18
100
AcDbEntity
  8
PLATE_TOP-LOCK
100
AcDbEllipse
 10
1.3125
 20
-2.048
 30
0.0
 11
0.0
 21
0.06
 31
0.0
210
0.0
220
0.0
230
1.0
 40
0.8
 41
0.0
 42
6.283185307179586
  0
CIRCLE
  5
3D
330
18
100
AcDbEntity
  8
PLATE_TOP-LOCK
100
AcDbCircle
 10
0.2
 20
-1.648
 30
0.0
 40
0.236
  0
ELLIPSE
  5
3E
330
18
100
AcDbEntity
  8
PLATE_TOP-LOCK
100
AcDbEllipse
 10
0.2
 20
-2.048
 30
0.0
 11
0.0
 21
0.06
 31
0.0
210
0.0
220
0.0
230
1.0
 40
0.8
 41
0.0
 42
6.283185307179586
  0
ELLIPSE
  5
3F
330
18
100
AcDbEntity
  8
PLATE_TOP-LOCK
100
AcDbEllipse
 10
-1.1
 20
-1.648
 30
0.0
 11
0.236
 21
0.0
 31
0.0
210
0.0
220
0.0
230
1.0
 40
1.0
 41
0.0
 42
6.283185307179586
  0
ELLIPSE
  5
40
330
18
100
AcDbEntity
  8
PLATE_TOP-LOCK
100
AcDbEllipse
 10
-1.1
 20
-2.048
 30
0.0
 11
0.0
 21
0.06
 31
0.0
210
0.0
220
0.0
230
1.0
 40
0.8
 41
0.0
 42
6.283185307179586
  0
ELLIPSE
  5
41
330
18
100
AcDbEntity
  8
PLATE_TOP-LOCK
100
AcDbEllipse
 10
-1.85
 20
-1.648
 30
0.0
 11
0.0
 21
0.236
 31
0.0
210
0.0
220
0.0
230
1.0
 40
1.0
 41
0.0
 42
6.283185307179586
  0
ELLIPSE
  5
42
330
18
100
AcDbEntity
  8
PLATE_TOP-LOCK
100
AcDbEllipse
 10
-1.85
 20
-2.048
 30
0.0
 11
0.0
 21
0.06
 31
0.0
210
0.0
220
0.0
230
1.0
 40
0.8
 41
0.0
 42
6.283185307179586
  0
ELLIPSE
  5
43
330
18
100
AcDbEntity
  8
PLATE_TOP-LOCK
100
AcDbEllipse
 10
-1.85
 20
-2.4605
 30
0.0
 11
0.0
 21
0.236
 31
0.0
210
0.0
220
0.0
230
1.0
 40
1.0
 41
0.0
 42
6.283185307179586
  0
ELLIPSE
  5
44
330
18
100
AcDbEntity
  8
PLATE_TOP-LOCK
100
AcDbEllipse
 10
-1.85
 20
-2.8605
 30
0.0
 11
0.0
 21
0.06
 31
0.0
210
0.0
220
0.0
230
1.0
 40
0.8
 41
0.0
 42
6.283185307179586
  0
ELLIPSE
  5
45
330
18
100
AcDbEntity
  8
PLATE_TOP-LOCK
100
AcDbEllipse
 10
-1.1
 20
-2.4605
 30
0.0
 11
0.0
 21
0.236
 31
0.0
210
0.0
220
0.0
230
1.0
 40
1.0
 41
0.0
 42
6.283185307179586
  0
ELLIPSE
  5
46
330
18
100
AcDbEntity
  8
PLATE_TOP-LOCK
100
AcDbEllipse
 10
-1.1
 20
-2.8605
 30
0.0
 11
0.0
 21
0.06
 31
0.0
210
0.0
220
0.0
230
1.0
 40
0.8
 41
0.0
 42
6.283185307179586
  0
ELLIPSE
  5
47
330
18
100
AcDbEntity
  8
PLATE_TOP-LOCK
100
AcDbEllipse
 10
0.0875
 20
-2.4605
 30
0.0
 11
0.0
 21
0.236
 31
0.0
210
0.0
220
0.0
230
1.0
 40
1.0
 41
0.0
 42
6.283185307179586
  0
ELLIPSE
  5
48
330
18
100
AcDbEntity
  8
PLATE_TOP-LOCK
100
AcDbEllipse
 10
0.0875
 20
-2.8605
 30
0.0
 11
0.0
 21
0.06
 31
0.0
210
0.0
220
0.0
230
1.0
 40
0.8
 41
0.0
 42
6.283185307179586
  0
ELLIPSE
  5
49
330
18
100
AcDbEntity
  8
PLATE_TOP-LOCK
100
AcDbEllipse
 10
0.9375
 20
-2.4605
 30
0.0
 11
0.0
 21
0.236
 31
0.0
210
0.0
220
0.0
230
1.0
 40
1.0
 41
0.0
 42
6.283185307179586
  0
ELLIPSE
  5
4A
330
18
100
AcDbEntity
  8
PLATE_TOP-LOCK
100
AcDbEllipse
 10
0.9375
 20
-2.8605
 30
0.0
 11
0.0
 21
0.06
 31
0.0
210
0.0
220
0.0
230
1.0
 40
0.8
 41
0.0
 42
6.283185307179586
  0
ELLIPSE
  5
4B
330
18
100
AcDbEntity
  8
PLATE_TOP-LOCK
100
AcDbEllipse
 10
1.6875
 20
-2.4605
 30
0.0
 11
0.0
 21
0.236
 31
0.0
210
0.0
220
0.0
230
1.0
 40
1.0
 41
0.0
 42
6.283185307179586
  0
ELLIPSE
  5
4C
330
18
100
AcDbEntity
  8
PLATE_TOP-LOCK
100
AcDbEllipse
 10
1.6875
 20
-2.8605
 30
0.0
 11
0.0
 21
0.06
 31
0.0
210
0.0
220
0.0
230
1.0
 40
0.8
 41
0.0
 42
6.283185307179586
  0
ELLIPSE
  5
4D
330
18
100
AcDbEntity
  8
PLATE_TOP-LOCK
100
AcDbEllipse
 10
-1.85
 20
-3.273
 30
0.0
 11
0.0
 21
0.236
 31
0.0
210
0.0
220
0.0
230
1.0
 40
1.0
 41
0.0
 42
6.283185307179586
  0
ELLIPSE
  5
4E
330
18
100
AcDbEntity
  8
PLATE_TOP-LOCK
100
AcDbEllipse
 10
-1.85
 20
-3.673
 30
0.0
 11
0.0
 21
0.06
 31
0.0
210
0.0
220
0.0
230
1.0
 40
0.8
 41
0.0
 42
6.283185307179586
  0
ELLIPSE
  5
4F
330
18
100
AcDbEntity
  8
PLATE_TOP-LOCK
100
AcDbEllipse
 10
-1.1
 20
-3.273
 30
0.0
 11
0.0
 21
0.236
 31
0.0
210
0.0
220
0.0
230
1.0
 40
1.0
 41
0.0
 42
6.283185307179586
  0
ELLIPSE
  5
50
330
18
100
AcDbEntity
  8
PLATE_TOP-LOCK
100
AcDbEllipse
 10
-1.1
 20
-3.673
 30
0.0
 11
0.0
 21
0.06
 31
0.0
210
0.0
220
0.0
230
1.0
 40
0.8
 41
0.0
 42
6.283185307179586
  0
ELLIPSE
  5
51
330
18
100
AcDbEntity
  8
PLATE_TOP-LOCK
100
AcDbEllipse
 10
0.2
 20
-3.273
 30
0.0
 11
0.0
 21
0.236
 31
0.0
210
0.0
220
0.0
230
1.0
 40
1.0
 41
0.0
 42
6.283185307179586
  0
ELLIPSE
  5
52
330
18
100
AcDbEntity
  8
PLATE_TOP-LOCK
100
AcDbEllipse
 10
0.2
 20
-3.673
 30
0.0
 11
0.0
 21
0.06
 31
0.0
210
0.0
220
0.0
230
1.0
 40
0.8
 41
0.0
 42
6.283185307179586
  0
ELLIPSE
  5
53
330
18
100
AcDbEntity
  8
PLATE_TOP-LOCK
100
AcDbEllipse
 10
1.225
 20
-3.273
 30
0.0
 11
0.0
 21
0.236
 31
0.0
210
0.0
220
0.0
230
1.0
 40
1.0
 41
0.0
 42
6.283185307179586
  0
ELLIPSE
  5
54
330
18
100
AcDbEntity
  8
PLATE_TOP-LOCK
100
AcDbEllipse
 10
1.225
 20
-3.673
 30
0.0
 11
0.0
 21
0.06
 31
0.0
210
0.0
220
0.0
230
1.0
 40
0.8
 41
0.0
 42
6.283185307179586
  0
ELLIPSE
  5
55
330
18
100
AcDbEntity
  8
PLATE_TOP-LOCK
100
AcDbEllipse
 10
2.1625
 20
-3.273
 30
0.0
 11
0.0
 21
0.236
 31
0.0
210
0.0
220
0.0
230
1.0
 40
1.0
 41
0.0
 42
6.283185307179586
  0
ELLIPSE
  5
56
330
18
100
AcDbEntity
  8
PLATE_TOP-LOCK
100
AcDbEllipse
 10
2.1625
 20
-3.673
 30
0.0
 11
0.0
 21
0.06
 31
0.0
210
0.0
220
0.0
230
1.0
 40
0.8
 41
0.0
 42
6.283185307179586
  0
CIRCLE
  5
57
330
18
100
AcDbEntity
  8
PLATE_TOP-LOCK
100
AcDbCircle
 10
5.265
 20
-3.273
 30
0.0
 40
0.236
  0
ELLIPSE
  5
58
330
18
100
AcDbEntity
  8
PLATE_TOP-LOCK
100
AcDbEllipse
 10
5.265
 20
-3.673
 30
0.0
 11
0.0
 21
0.06
 31
0.0
210
0.0
220
0.0
230
1.0
 40
0.8
 41
0.0
 42
6.283185307179586
  0
CIRCLE
  5
59
330
18
100
AcDbEntity
  8
PLATE_TOP-LOCK
100
AcDbCircle
 10
2.4375
 20
-2.4605
 30
0.0
 40
0.236
  0
ELLIPSE
  5
5A
330
18
100
AcDbEntity
  8
PLATE_TOP-LOCK
100
AcDbEllipse
 10
2.4375
 20
-2.8605
 30
0.0
 11
0.0
 21
0.06
 31
0.0
210
0.0
220
0.0
230
1.0
 40
0.8
 41
0.0
 42
6.283185307179586
  0
CIRCLE
  5
5B
330
18
100
AcDbEntity
  8
PLATE_TOP-LOCK
100
AcDbCircle
 10
3.1875
 20
-2.4605
 30
0.0
 40
0.236
  0
ELLIPSE
  5
5C
330
18
100
AcDbEntity
  8
PLATE_TOP-LOCK
100
AcDbEllipse
 10
3.1875
 20
-2.8605
 30
0.0
 11
0.0
 21
0.06
 31
0.0
210
0.0
220
0.0
230
1.0
 40
0.8
 41
0.0
 42
6.283185307179586
  0
ELLIPSE
  5
5D
330
18
100
AcDbEntity
  8
PLATE_TOP-LOCK
100
AcDbEllipse
 10
3.9375
 20
-2.4605
 30
0.0
 11
0.0
 21
0.236
 31
0.0
210
0.0
220
0.0
230
1.0
 40
1.0
 41
0.0
 42
6.283185307179586
  0
ELLIPSE
  5
5E
330
18
100
AcDbEntity
  8
PLATE_TOP-LOCK
100
AcDbEllipse
 10
3.9375
 20
-2.8605
 30
0.0
 11
0.0
 21
0.06
 31
0.0
210
0.0
220
0.0
230
1.0
 40
0.8
 41
0.0
 42
6.283185307179586
  0
ELLIPSE
  5
5F
330
18
100
AcDbEntity
  8
PLATE_TOP-LOCK
100
AcDbEllipse
 10
4.6875
 20
-2.4605
 30
0.0
 11
0.0
 21
0.236
 31
0.0
210
0.0
220
0.0
230
1.0
 40
1.0
 41
0.0
 42
6.283185307179586
  0
ELLIPSE
  5
60
330
18
100
AcDbEntity
  8
PLATE_TOP-LOCK
100
AcDbEllipse
 10
4.6875
 20
-2.8605
 30
0.0
 11
0.0
 21
0.06
 31
0.0
210
0.0
220
0.0
230
1.0
 40
0.8
 41
0.0
 42
6.283185307179586
  0
ELLIPSE
  5
61
330
18
100
AcDbEntity
  8
PLATE_TOP-LOCK
100
AcDbEllipse
 10
5.4375
 20
-2.4605
 30
0.0
 11
0.0
 21
0.236
 31
0.0
210
0.0
220
0.0
230
1.0
 40
1.0
 41
0.0
 42
6.283185307179586
  0
ELLIPSE
  5
62
330
18
100
AcDbEntity
  8
PLATE_TOP-LOCK
100
AcDbEllipse
 10
5.4375
 20
-2.8605
 30
0.0
 11
0.0
 21
0.06
 31
0.0
210
0.0
220
0.0
230
1.0
 40
0.8
 41
0.0
 42
6.283185307179586
  0
ELLIPSE
  5
63
330
18
100
AcDbEntity
  8
PLATE_TOP-LOCK
100
AcDbEllipse
 10
6.1875
 20
-2.4605
 30
0.0
 11
0.0
 21
0.236
 31
0.0
210
0.0
220
0.0
230
1.0
 40
1.0
 41
0.0
 42
6.283185307179586
  0
ELLIPSE
  5
64
330
18
100
AcDbEntity
  8
PLATE_TOP-LOCK
100
AcDbEllipse
 10
6.1875
 20
-2.8605
 30
0.0
 11
0.0
 21
0.06
 31
0.0
210
0.0
220
0.0
230
1.0
 40
0.8
 41
0.0
 42
6.283185307179586
  0
ELLIPSE
  5
65
330
18
100
AcDbEntity
  8
PLATE_TOP-LOCK
100
AcDbEllipse
 10
5.8125
 20
-1.648
 30
0.0
 11
0.0
 21
0.236
 31
0.0
210
0.0
220
0.0
230
1.0
 40
1.0
 41
0.0
 42
6.283185307179586
  0
ELLIPSE
  5
66
330
18
100
AcDbEntity
  8
PLATE_TOP-LOCK
100
AcDbEllipse
 10
5.8125
 20
-2.048
 30
0.0
 11
0.0
 21
0.06
 31
0.0
210
0.0
220
0.0
230
1.0
 40
0.8
 41
0.0
 42
6.283185307179586
  0
ELLIPSE
  5
67
330
18
100
AcDbEntity
  8
PLATE_TOP-LOCK
100
AcDbEllipse
 10
5.0625
 20
-1.648
 30
0.0
 11
0.0
 21
0.236
 31
0.0
210
0.0
220
0.0
230
1.0
 40
1.0
 41
0.0
 42
6.283185307179586
  0
ELLIPSE
  5
68
330
18
100
AcDbEntity
  8
PLATE_TOP-LOCK
100
AcDbEllipse
 10
5.0625
 20
-2.048
 30
0.0
 11
0.0
 21
0.06
 31
0.0
210
0.0
220
0.0
230
1.0
 40
0.8
 41
0.0
 42
6.283185307179586
  0
ELLIPSE
  5
69
330
18
100
AcDbEntity
  8
PLATE_TOP-LOCK
100
AcDbEllipse
 10
4.3125
 20
-1.648
 30
0.0
 11
0.0
 21
0.236
 31
0.0
210
0.0
220
0.0
230
1.0
 40
1.0
 41
0.0
 42
6.283185307179586
  0
ELLIPSE
  5
6A
330
18
100
AcDbEntity
  8
PLATE_TOP-LOCK
100
AcDbEllipse
 10
4.3125
 20
-2.048
 30
0.0
 11
0.0
 21
0.06
 31
0.0
210
0.0
220
0.0
230
1.0
 40
0.8
 41
0.0
 42
6.283185307179586
  0
ELLIPSE
  5
6B
330
18
100
AcDbEntity
  8
PLATE_TOP-LOCK
100
AcDbEllipse
 10
3.5625
 20
-1.648
 30
0.0
 11
0.236
 21
0.0
 31
0.0
210
0.0
220
0.0
230
1.0
 40
1.0
 41
0.0
 42
6.283185307179586
  0
ELLIPSE
  5
6C
330
18
100
AcDbEntity
  8
PLATE_TOP-LOCK
100
AcDbEllipse
 10
3.5625
 20
-2.048
 30
0.0
 11
0.0
 21
0.06
 31
0.0
210
0.0
220
0.0
230
1.0
 40
0.8
 41
0.0
 42
6.283185307179586
  0
ELLIPSE
  5
6D
330
18
100
AcDbEntity
  8
PLATE_TOP-LOCK
100
AcDbEllipse
 10
2.8125
 20
-1.648
 30
0.0
 11
0.236
 21
0.0
 31
0.0
210
0.0
220
0.0
230
1.0
 40
1.0
 41
0.0
 42
6.283185307179586
  0
ELLIPSE
  5
6E
330
18
100
AcDbEntity
  8
PLATE_TOP-LOCK
100
AcDbEllipse
 10
2.8125
 20
-2.048
 30
0.0
 11
0.0
 21
0.06
 31
0.0
210
0.0
220
0.0
230
1.0
 40
0.8
 41
0.0
 42
6.283185307179586
  0
ELLIPSE
  5
6F
330
18
100
AcDbEntity
  8
PLATE_TOP-LOCK
100
AcDbEllipse
 10
2.625
 20
-0.8355
 30
0.0
 11
0.236
 21
0.0
 31
0.0
210
0.0
220
0.0
230
1.0
 40
1.0
 41
0.0
 42
6.283185307179586
  0
ELLIPSE
  5
70
330
18
100
AcDbEntity
  8
PLATE_TOP-LOCK
100
AcDbEllipse
 10
2.625
 20
-1.2355
 30
0.0
 11
0.0
 21
0.06
 31
0.0
210
0.0
220
0.0
230
1.0
 40
0.8
 41
0.0
 42
6.283185307179586
  0
ELLIPSE
  5
71
330
18
100
AcDbEntity
  8
PLATE_TOP-LOCK
100
AcDbEllipse
 10
3.375
 20
-0.8355
 30
0.0
 11
0.236
 21
0.0
 31
0.0
210
0.0
220
0.0
230
1.0
 40
1.0
 41
0.0
 42
6.283185307179586
  0
ELLIPSE
  5
72
330
18
100
AcDbEntity
  8
PLATE_TOP-LOCK
100
AcDbEllipse
 10
3.375
 20
-1.2355
 30
0.0
 11
0.0
 21
0.06
 31
0.0
210
0.0
220
0.0
230
1.0
 40
0.8
 41
0.0
 42
6.283185307179586
  0
CIRCLE
  5
73
330
18
100
AcDbEntity
  8
PLATE_TOP-LOCK
100
AcDbCircle
 10
4.125
 20
-0.8355
 30
0.0
 40
0.236
  0
ELLIPSE
  5
74
330
18
100
AcDbEntity
  8
PLATE_TOP-LOCK
100
AcDbEllipse
 10
4.125
 20
-1.2355
 30
0.0
 11
0.0
 21
0.06
 31
0.0
210
0.0
220
0.0
230
1.0
 40
0.8
 41
0.0
 42
6.283185307179586
  0
ELLIPSE
  5
75
330
18
100
AcDbEntity
  8
PLATE_TOP-LOCK
100
AcDbEllipse
 10
4.875
 20
-0.8355
 30
0.0
 11
0.0
 21
0.236
 31
0.0
210
0.0
220
0.0
230
1.0
 40
1.0
 41
0.0
 42
6.283185307179586
  0
ELLIPSE
  5
76
330
18
100
AcDbEntity
  8
PLATE_TOP-LOCK
100
AcDbEllipse
 10
4.875
 20
-1.2355
 30
0.0
 11
0.0
 21
0.06
 31
0.0
210
0.0
220
0.0
230
1.0
 40
0.8
 41
0.0
 42
6.283185307179586
  0
ELLIPSE
  5
77
330
18
100
AcDbEntity
  8
PLATE_TOP-LOCK
100
AcDbEllipse
 10
5.625
 20
-0.8355
 30
0.0
 11
0.0
 21
0.236
 31
0.0
210
0.0
220
0.0
230
1.0
 40
1.0
 41
0.0
 42
6.283185307179586
  0
ELLIPSE
  5
78
330
18
100
AcDbEntity
  8
PLATE_TOP-LOCK
100
AcDbEllipse
 10
5.625
 20
-1.2355
 30
0.0
 11
0.0
 21
0.06
 31
0.0
210
0.0
220
0.0
230
1.0
 40
0.8
 41
0.0
 42
6.283185307179586
  0
ELLIPSE
  5
79
330
18
100
AcDbEntity
  8
PLATE_TOP-LOCK
100
AcDbEllipse
 10
6.375
 20
-0.8355
 30
0.0
 11
0.0
 21
0.236
 31
0.0
210
0.0
220
0.0
230
1.0
 40
1.0
 41
0.0
 42
6.283185307179586
  0
ELLIPSE
  5
7A
330
18
100
AcDbEntity
  8
PLATE_TOP-LOCK
100
AcDbEllipse
 10
6.375
 20
-1.2355
 30
0.0
 11
0.0
 21
0.06
 31
0.0
210
0.0
220
0.0
230
1.0
 40
0.8
 41
0.0
 42
6.283185307179586
  0
ELLIPSE
  5
7B
330
18
100
AcDbEntity
  8
PLATE_TOP-LOCK
100
AcDbEllipse
 10
2.25
 20
-0.023
 30
0.0
 11
0.236
 21
0.0
 31
0.0
210
0.0
220
0.0
230
1.0
 40
1.0
 41
0.0
 42
6.283185307179586
  0
ELLIPSE
  5
7C
330
18
100
AcDbEntity
  8
PLATE_TOP-LOCK
100
AcDbEllipse
 10
2.25
 20
-0.423
 30
0.0
 11
0.0
 21
0.06
 31
0.0
210
0.0
220
0.0
230
1.0
 40
0.8
 41
0.0
 42
6.283185307179586
  0
ELLIPSE
  5
7D
330
18
100
AcDbEntity
  8
PLATE_TOP-LOCK
100
AcDbEllipse
 10
3.0
 20
-0.023
 30
0.0
 11
0.236
 21
0.0
 31
0.0
210
0.0
220
0.0
230
1.0
 40
1.0
 41
0.0
 42
6.283185307179586
  0
ELLIPSE
  5
7E
330
18
100
AcDbEntity
  8
PLATE_TOP-LOCK
100
AcDbEllipse
 10
3.0
 20
-0.423
 30
0.0
 11
0.0
 21
0.06
 31
0.0
210
0.0
220
0.0
230
1.0
 40
0.8
 41
0.0
 42
6.283185307179586
  0
ELLIPSE
  5
7F
330
18
100
AcDbEntity
  8
PLATE_TOP-LOCK
100
AcDbEllipse
 10
3.75
 20
-0.023
 30
0.0
 11
0.236
 21
0.0
 31
0.0
210
0.0
220
0.0
230
1.0
 40
1.0
 41
0.0
 42
6.283185307179586
  0
ELLIPSE
  5
80
330
18
100
AcDbEntity
  8
PLATE_TOP-LOCK
100
AcDbEllipse
 10
3.75
 20
-0.423
 30
0.0
 11
0.0
 21
0.06
 31
0.0
210
0.0
220
0.0
230
1.0
 40
0.8
 41
0.0
 42
6.283185307179586
  0
ELLIPSE
  5
81
330
18
100
AcDbEntity
  8
PLATE_TOP-LOCK
100
AcDbEllipse
 10
4.5
 20
-0.023
 30
0.0
 11
0.0
 21
0.236
 31
0.0
210
0.0
220
0.0
230
1.0
 40
1.0
 41
0.0
 42
6.283185307179586
  0
ELLIPSE
  5
82
330
18
100
AcDbEntity
  8
PLATE_TOP-LOCK
100
AcDbEllipse
 10
4.5
 20
-0.423
 30
0.0
 11
0.0
 21
0.06
 31
0.0
210
0.0
220
0.0
230
1.0
 40
0.8
 41
0.0
 42
6.283185307179586
  0
ELLIPSE
  5
83
330
18
100
AcDbEntity
  8
PLATE_TOP-LOCK
100
AcDbEllipse
 10
5.25
 20
-0.023
 30
0.0
 11
0.0
 21
0.236
 31
0.0
210
0.0
220
0.0
230
1.0
 40
1.0
 41
0.0
 42
6.283185307179586
  0
ELLIPSE
  5
84
330
18
100
AcDbEntity
  8
PLATE_TOP-LOCK
100
AcDbEllipse
 10
5.25
 20
-0.423
 30
0.0
 11
0.0
 21
0.06
 31
0.0
210
0.0
220
0.0
230
1.0
 40
0.8
 41
0.0
 42
6.283185307179586
  0
ELLIPSE
  5
85
330
18
100
AcDbEntity
  8
PLATE_TOP-LOCK
100
AcDbEllipse
 10
6.0
 20
-0.023
 30
0.0
 11
0.0
 21
0.236
 31
0.0
210
0.0
220
0.0
230
1.0
 40
1.0
 41
0.0
 42
6.283185307179586
  0
ELLIPSE
  5
86
330
18
100
AcDbEntity
  8
PLATE_TOP-LOCK
100
AcDbEllipse
 10
6.0
 20
-0.423
 30
0.0
 11
0.0
 21
0.06
 31
0.0
210
0.0
220
0.0
230
1.0
 40
0.8
 41
0.0
 42
6.283185307179586
  0
ELLIPSE
  5
87
330
18
100
AcDbEntity
  8
PLATE_TOP-LOCK
100
AcDbEllipse
 10
6.75
 20
-0.023
 30
0.0
 11
0.0
 21
0.236
 31
0.0
210
0.0
220
0.0
230
1.0
 40
1.0
 41
0.0
 42
6.283185307179586
  0
ELLIPSE
  5
88
330
18
100
AcDbEntity
  8
PLATE_TOP-LOCK
100
AcDbEllipse
 10
6.75
 20
-0.423
 30
0.0
 11
0.0
 21
0.06
 31
0.0
210
0.0
220
0.0
230
1.0
 40
0.8
 41
0.0
 42
6.283185307179586
  0
ELLIPSE
  5
89
330
18
100
AcDbEntity
  8
PLATE_TOP-LOCK
100
AcDbEllipse
 10
7.125
 20
-0.8355
 30
0.0
 11
0.0
 21
0.236
 31
0.0
210
0.0
220
0.0
230
1.0
 40
1.0
 41
0.0
 42
6.283185307179586
  0
ELLIPSE
  5
8A
330
18
100
AcDbEntity
  8
PLATE_TOP-LOCK
100
AcDbEllipse
 10
7.125
 20
-1.2355
 30
0.0
 11
0.0
 21
0.06
 31
0.0
210
0.0
220
0.0
230
1.0
 40
0.8
 41
0.0
 42
6.283185307179586
  0
ELLIPSE
  5
8B
330
18
100
AcDbEntity
  8
PLATE_TOP-LOCK
100
AcDbEllipse
 10
7.5
 20
-0.023
 30
0.0
 11
0.0
 21
0.236
 31
0.0
210
0.0
220
0.0
230
1.0
 40
1.0
 41
0.0
 42
6.283185307179586
  0
ELLIPSE
  5
8C
330
18
100
AcDbEntity
  8
PLATE_TOP-LOCK
100
AcDbEllipse
 10
7.5
 20
-0.423
 30
0.0
 11
0.0
 21
0.06
 31
0.0
210
0.0
220
0.0
230
1.0
 40
0.8
 41
0.0
 42
6.283185307179586
  0
ELLIPSE
  5
8D
330
18
100
AcDbEntity
  8
PLATE_TOP-LOCK
100
AcDbEllipse
 10
8.25
 20
-0.023
 30
0.0
 11
0.236
 21
0.0
 31
0.0
210
0.0
220
0.0
230
1.0
 40
1.0
 41
0.0
 42
6.283185307179586
  0
ELLIPSE
  5
8E
330
18
100
AcDbEntity
  8
PLATE_TOP-LOCK
100
AcDbEllipse
 10
8.25
 20
-0.423
 30
0.0
 11
0.0
 21
0.06
 31
0.0
210
0.0
220
0.0
230
1.0
 40
0.8
 41
0.0
 42
6.283185307179586
  0
ELLIPSE
  5
8F
330
18
100
AcDbEntity
  8
PLATE_TOP-LOCK
100
AcDbEllipse
 10
7.875
 20
-0.8355
 30
0.0
 11
0.236
 21
0.0
 31
0.0
210
0.0
220
0.0
230
1.0
 40
1.0
 41
0.0
 42
6.283185307179586
  0
ELLIPSE
  5
90
330
18
100
AcDbEntity
  8
PLATE_TOP-LOCK
100
AcDbEllipse
 10
7.875
 20
-1.2355
 30
0.0
 11
0.0
 21
0.06
 31
0.0
210
0.0
220
0.0
230
1.0
 40
0.8
 41
0.0
 42
6.283185307179586
  0
ELLIPSE
  5
91
330
18
100
AcDbEntity
  8
PLATE_TOP-LOCK
100
AcDbEllipse
 10
6.5625
 20
-1.648
 30
0.0
 11
0.0
 21
0.236
 31
0.0
210
0.0
220
0.0
230
1.0
 40
1.0
 41
0.0
 42
6.283185307179586
  0
ELLIPSE
  5
92
330
18
100
AcDbEntity
  8
PLATE_TOP-LOCK
100
AcDbEllipse
 10
6.5625
 20
-2.048
 30
0.0
 11
0.0
 21
0.06
 31
0.0
210
0.0
220
0.0
230
1.0
 40
0.8
 41
0.0
 42
6.283185307179586
  0
ELLIPSE
  5
93
330
18
100
AcDbEntity
  8
PLATE_TOP-LOCK
100
AcDbEllipse
 10
7.3125
 20
-1.648
 30
0.0
 11
0.0
 21
0.236
 31
0.0
210
0.0
220
0.0
230
1.0
 40
1.0
 41
0.0
 42
6.283185307179586
  0
ELLIPSE
  5
94
330
18
100
AcDbEntity
  8
PLATE_TOP-LOCK
100
AcDbEllipse
 10
7.3125
 20
-2.048
 30
0.0
 11
0.0
 21
0.06
 31
0.0
210
0.0
220
0.0
230
1.0
 40
0.8
 41
0.0
 42
6.283185307179586
  0
ELLIPSE
  5
95
330
18
100
AcDbEntity
  8
PLATE_TOP-LOCK
100
AcDbEllipse
 10
8.0625
 20
-1.648
 30
0.0
 11
0.236
 21
0.0
 31
0.0
210
0.0
220
0.0
230
1.0
 40
1.0
 41
0.0
 42
6.283185307179586
  0
ELLIPSE
  5
96
330
18
100
AcDbEntity
  8
PLATE_TOP-LOCK
100
AcDbEllipse
 10
8.0625
 20
-2.048
 30
0.0
 11
0.0
 21
0.06
 31
0.0
210
0.0
220
0.0
230
1.0
 40
0.8
 41
0.0
 42
6.283185307179586
  0
ELLIPSE
  5
97
330
18
100
AcDbEntity
  8
PLATE_TOP-LOCK
100
AcDbEllipse
 10
6.9375
 20
-2.4605
 30
0.0
 11
0.0
 21
0.236
 31
0.0
210
0.0
220
0.0
230
1.0
 40
1.0
 41
0.0
 42
6.283185307179586
  0
ELLIPSE
  5
98
330
18
100
AcDbEntity
  8
PLATE_TOP-LOCK
100
AcDbEllipse
 10
6.9375
 20
-2.8605
 30
0.0
 11
0.0
 21
0.06
 31
0.0
210
0.0
220
0.0
230
1.0
 40
0.8
 41
0.0
 42
6.283185307179586
  0
ELLIPSE
  5
99
330
18
100
AcDbEntity
  8
PLATE_TOP-LOCK
100
AcDbEllipse
 10
7.6875
 20
-2.4605
 30
0.0
 11
0.0
 21
0.236
 31
0.0
210
0.0
220
0.0
230
1.0
 40
1.0
 41
0.0
 42
6.283185307179586
  0
ELLIPSE
  5
9A
330
18
100
AcDbEntity
  8
PLATE_TOP-LOCK
100
AcDbEllipse
 10
7.6875
 20
-2.8605
 30
0.0
 11
0.0
 21
0.06
 31
0.0
210
0.0
220
0.0
230
1.0
 40
0.8
 41
0.0
 42
6.283185307179586
  0
ELLIPSE
  5
9B
330
18
100
AcDbEntity
  8
PLATE_TOP-LOCK
100
AcDbEllipse
 10
8.4375
 20
-2.4605
 30
0.0
 11
0.236
 21
0.0
 31
0.0
210
0.0
220
0.0
230
1.0
 40
1.0
 41
0.0
 42
6.283185307179586
  0
ELLIPSE
  5
9C
330
18
100
AcDbEntity
  8
PLATE_TOP-LOCK
100
AcDbEllipse
 10
8.4375
 20
-2.8605
 30
0.0
 11
0.0
 21
0.06
 31
0.0
210
0.0
220
0.0
230
1.0
 40
0.8
 41
0.0
 42
6.283185307179586
  0
ELLIPSE
  5
9D
330
18
100
AcDbEntity
  8
PLATE_TOP-LOCK
100
AcDbEllipse
 10
8.35
 20
-3.273
 30
0.0
 11
0.0
 21
0.236
 31
0.0
210
0.0
220
0.0
230
1.0
 40
1.0
 41
0.0
 42
6.283185307179586
  0
ELLIPSE
  5
9E
330
18
100
AcDbEntity
  8
PLATE_TOP-LOCK
100
AcDbEllipse
 10
8.35
 20
-3.673
 30
0.0
 11
0.0
 21
0.06
 31
0.0
210
0.0
220
0.0
230
1.0
 40
0.8
 41
0.0
 42
6.283185307179586
  0
ELLIPSE
  5
9F
330
18
100
AcDbEntity
  8
PLATE_TOP-LOCK
100
AcDbEllipse
 10
9.2875
 20
-3.273
 30
0.0
 11
0.0
 21
0.236
 31
0.0
210
0.0
220
0.0
230
1.0
 40
1.0
 41
0.0
 42
6.283185307179586
  0
ELLIPSE
  5
A0
330
18
100
AcDbEntity
  8
PLATE_TOP-LOCK
100
AcDbEllipse
 10
9.2875
 20
-3.673
 30
0.0
 11
0.0
 21
0.06
 31
0.0
210
0.0
220
0.0
230
1.0
 40
0.8
 41
0.0
 42
6.283185307179586
  0
ELLIPSE
  5
A1
330
18
100
AcDbEntity
  8
PLATE_TOP-LOCK
100
AcDbEllipse
 10
9.1875
 20
-2.4605
 30
0.0
 11
0.236
 21
0.0
 31
0.0
210
0.0
220
0.0
230
1.0
 40
1.0
 41
0.0
 42
6.283185307179586
  0
ELLIPSE
  5
A2
330
18
100
AcDbEntity
  8
PLATE_TOP-LOCK
100
AcDbEllipse
 10
9.1875
 20
-2.8605
 30
0.0
 11
0.0
 21
0.06
 31
0.0
210
0.0
220
0.0
230
1.0
 40
0.8
 41
0.0
 42
6.283185307179586
  0
ELLIPSE
  5
A3
330
18
100
AcDbEntity
  8
PLATE_TOP-LOCK
100
AcDbEllipse
 10
8.8125
 20
-1.648
 30
0.0
 11
0.236
 21
0.0
 31
0.0
210
0.0
220
0.0
230
1.0
 40
1.0
 41
0.0
 42
6.283185307179586
  0
ELLIPSE
  5
A4
330
18
100
AcDbEntity
  8
PLATE_TOP-LOCK
100
AcDbEllipse
 10
8.8125
 20
-2.048
 30
0.0
 11
0.0
 21
0.06
 31
0.0
210
0.0
220
0.0
230
1.0
 40
0.8
 41
0.0
 42
6.283185307179586
  0
ELLIPSE
  5
A5
330
18
100
AcDbEntity
  8
PLATE_TOP-LOCK
100
AcDbEllipse
 10
8.625
 20
-0.8355
 30
0.0
 11
0.236
 21
0.0
 31
0.0
210
0.0
220
0.0
230
1.0
 40
1.0
 41
0.0
 42
6.283185307179586
  0
ELLIPSE
  5
A6
330
18
100
AcDbEntity
  8
PLATE_TOP-LOCK
100
AcDbEllipse
 10
8.625
 20
-1.2355
 30
0.0
 11
0.0
 21
0.06
 31
0.0
210
0.0
220
0.0
230
1.0
 40
0.8
 41
0.0
 42
6.283185307179586
  0
ELLIPSE
  5
A7
330
18
100
AcDbEntity
  8
PLATE_TOP-LOCK
100
AcDbEllipse
 10
9.0
 20
-0.023
 30
0.0
 11
0.236
 21
0.0
 31
0.0
210
0.0
220
0.0
230
1.0
 40
1.0
 41
0.0
 42
6.283185307179586
  0
ELLIPSE
  5
A8
330
18
100
AcDbEntity
  8
PLATE_TOP-LOCK
100
AcDbEllipse
 10
9.0
 20
-0.423
 30
0.0
 11
0.0
 21
0.06
 31
0.0
210
0.0
220
0.0
230
1.0
 40
0.8
 41
0.0
 42
6.283185307179586
  0
ELLIPSE
  5
A9
330
18
100
AcDbEntity
  8
PLATE_TOP-LOCK
100
AcDbEllipse
 10
9.375
 20
-0.8355
 30
0.0
 11
0.236
 21
0.0
 31
0.0
210
0.0
220
0.0
230
1.0
 40
1.0
 41
0.0
 42
6.283185307179586
  0
ELLIPSE
  5
AA
330
18
100
AcDbEntity
  8
PLATE_TOP-LOCK
100
AcDbEllipse
 10
9.375
 20
-1.2355
 30
0.0
 11
0.0
 21
0.06
 31
0.0
210
0.0
220
0.0
230
1.0
 40
0.8
 41
0.0
 42
6.283185307179586
  0
ELLIPSE
  5
AB
330
18
100
AcDbEntity
  8
PLATE_TOP-LOCK
100
AcDbEllipse
 10
9.75
 20
-0.023
 30
0.0
 11
0.236
 21
0.0
 31
0.0
210
0.0
220
0.0
230
1.0
 40
1.0
 41
0.0
 42
6.283185307179586
  0
ELLIPSE
  5
AC
330
18
100
AcDbEntity
  8
PLATE_TOP-LOCK
100
AcDbEllipse
 10
9.75
 20
-0.423
 30
0.0
 11
0.0
 21
0.06
 31
0.0
210
0.0
220
0.0
230
1.0
 40
0.8
 41
0.0
 42
6.283185307179586
  0
ELLIPSE
  5
AD
330
18
100
AcDbEntity
  8
PLATE_TOP-LOCK
100
AcDbEllipse
 10
10.5
 20
-0.023
 30
0.0
 11
0.236
 21
0.0
 31
0.0
210
0.0
220
0.0
230
1.0
 40
1.0
 41
0.0
 42
6.283185307179586
  0
ELLIPSE
  5
AE
330
18
100
AcDbEntity
  8
PLATE_TOP-LOCK
100
AcDbEllipse
 10
10.5
 20
-0.423
 30
0.0
 11
0.0
 21
0.06
 31
0.0
210
0.0
220
0.0
230
1.0
 40
0.8
 41
0.0
 42
6.283185307179586
  0
ELLIPSE
  5
AF
330
18
100
AcDbEntity
  8
PLATE_TOP-LOCK
100
AcDbEllipse
 10
10.325
 20
-0.8355
 30
0.0
 11
0.0
 21
0.236
 31
0.0
210
0.0
220
0.0
230
1.0
 40
1.0
 41
0.0
 42
6.283185307179586
  0
ELLIPSE
  5
B0
330
18
100
AcDbEntity
  8
PLATE_TOP-LOCK
100
AcDbEllipse
 10
10.325
 20
-1.2355
 30
0.0
 11
0.0
 21
0.06
 31
0.0
210
0.0
220
0.0
230
1.0
 40
0.8
 41
0.0
 42
6.283185307179586
  0
ELLIPSE
  5
B1
330
18
100
AcDbEntity
  8
PLATE_TOP-LOCK
100
AcDbEllipse
 10
10.3875
 20
-1.648
 30
0.0
 11
0.0
 21
0.236
 31
0.0
210
0.0
220
0.0
230
1.0
 40
1.0
 41
0.0
 42
6.283185307179586
  0
ELLIPSE
  5
B2
330
18
100
AcDbEntity
  8
PLATE_TOP-LOCK
100
AcDbEllipse
 10
10.3875
 20
-2.048
 30
0.0
 11
0.0
 21
0.06
 31
0.0
210
0.0
220
0.0
230
1.0
 40
0.8
 41
0.0
 42
6.283185307179586
  0
ELLIPSE
  5
B3
330
18
100
AcDbEntity
  8
PLATE_TOP-LOCK
100
AcDbEllipse
 10
9.5625
 20
-1.648
 30
0.0
 11
0.236
 21
0.0
 31
0.0
210
0.0
220
0.0
230
1.0
 40
1.0
 41
0.0
 42
6.283185307179586
  0
ELLIPSE
  5
B4
330
18
100
AcDbEntity
  8
PLATE_TOP-LOCK
100
AcDbEllipse
 10
9.5625
 20
-2.048
 30
0.0
 11
0.0
 21
0.06
 31
0.0
210
0.0
220
0.0
230
1.0
 40
0.8
 41
0.0
 42
6.283185307179586
  0
ELLIPSE
  5
B5
330
18
100
AcDbEntity
  8
PLATE_TOP-LOCK
100
AcDbEllipse
 10
10.1375
 20
-2.4605
 30
0.0
 11
0.0
 21
0.236
 31
0.0
210
0.0
220
0.0
230
1.0
 40
1.0
 41
0.0
 42
6.283185307179586
  0
ELLIPSE
  5
B6
330
18
100
AcDbEntity
  8
PLATE_TOP-LOCK
100
AcDbEllipse
 10
10.1375
 20
-2.8605
 30
0.0
 11
0.0
 21
0.06
 31
0.0
210
0.0
220
0.0
230
1.0
 40
0.8
 41
0.0
 42
6.283185307179586
  0
ELLIPSE
  5
B7
330
18
100
AcDbEntity
  8
PLATE_TOP-LOCK
100
AcDbEllipse
 10
10.325
 20
-3.273
 30
0.0
 11
0.0
 21
0.236
 31
0.0
210
0.0
220
0.0
230
1.0
 40
1.0
 41
0.0
 42
6.283185307179586
  0
ELLIPSE
  5
B8
330
18
100
AcDbEntity
  8
PLATE_TOP-LOCK
100
AcDbEllipse
 10
10.325
 20
-3.673
 30
0.0
 11
0.0
 21
0.06
 31
0.0
210
0.0
220
0.0
230
1.0
 40
0.8
 41
0.0
 42
6.283185307179586
  0
ELLIPSE
  5
B9
330
18
100
AcDbEntity
  8
PLATE_TOP-LOCK
100
AcDbEllipse
 10
11.3875
 20
-3.273
 30
0.0
 11
0.0
 21
0.236
 31
0.0
210
0.0
220
0.0
230
1.0
 40
1.0
 41
0.0
 42
6.283185307179586
  0
ELLIPSE
  5
BA
330
18
100
AcDbEntity
  8
PLATE_TOP-LOCK
100
AcDbEllipse
 10
11.3875
 20
-3.673
 30
0.0
 11
0.0
 21
0.06
 31
0.0
210
0.0
220
0.0
230
1.0
 40
0.8
 41
0.0
 42
6.283185307179586
  0
ELLIPSE
  5
BB
330
18
100
AcDbEntity
  8
PLATE_TOP-LOCK
100
AcDbEllipse
 10
12.325
 20
-3.273
 30
0.0
 11
0.0
 21
0.236
 31
0.0
210
0.0
220
0.0
230
1.0
 40
1.0
 41
0.0
 42
6.283185307179586
  0
ELLIPSE
  5
BC
330
18
100
AcDbEntity
  8
PLATE_TOP-LOCK
100
AcDbEllipse
 10
12.325
 20
-3.673
 30
0.0
 11
0.0
 21
0.06
 31
0.0
210
0.0
220
0.0
230
1.0
 40
0.8
 41
0.0
 42
6.283185307179586
  0
ELLIPSE
  5
BD
330
18
100
AcDbEntity
  8
PLATE_TOP-LOCK
100
AcDbEllipse
 10
13.2625
 20
-3.273
 30
0.0
 11
0.0
 21
0.236
 31
0.0
210
0.0
220
0.0
230
1.0
 40
1.0
 41
0.0
 42
6.283185307179586
  0
ELLIPSE
  5
BE
330
18
100
AcDbEntity
  8
PLATE_TOP-LOCK
100
AcDbEllipse
 10
13.2625
 20
-3.673
 30
0.0
 11
0.0
 21
0.06
 31
0.0
210
0.0
220
0.0
230
1.0
 40
0.8
 41
0.0
 42
6.283185307179586
  0
ELLIPSE
  5
BF
330
18
100
AcDbEntity
  8
PLATE_TOP-LOCK
100
AcDbEllipse
 10
12.325
 20
-2.4605
 30
0.0
 11
0.0
 21
0.236
 31
0.0
210
0.0
220
0.0
230
1.0
 40
1.0
 41
0.0
 42
6.283185307179586
  0
ELLIPSE
  5
C0
330
18
100
AcDbEntity
  8
PLATE_TOP-LOCK
100
AcDbEllipse
 10
12.325
 20
-2.8605
 30
0.0
 11
0.0
 21
0.06
 31
0.0
210
0.0
220
0.0
230
1.0
 40
0.8
 41
0.0
 42
6.283185307179586
  0
ELLIPSE
  5
C1
330
18
100
AcDbEntity
  8
PLATE_TOP-LOCK
100
AcDbEllipse
 10
11.3875
 20
-0.8355
 30
0.0
 11
0.0
 21
0.236
 31
0.0
210
0.0
220
0.0
230
1.0
 40
1.0
 41
0.0
 42
6.283185307179586
  0
ELLIPSE
  5
C2
330
18
100
AcDbEntity
  8
PLATE_TOP-LOCK
100
AcDbEllipse
 10
11.3875
 20
-1.2355
 30
0.0
 11
0.0
 21
0.06
 31
0.0
210
0.0
220
0.0
230
1.0
 40
0.8
 41
0.0
 42
6.283185307179586
  0
ELLIPSE
  5
C3
330
18
100
AcDbEntity
  8
PLATE_TOP-LOCK
100
AcDbEllipse
 10
12.325
 20
-0.8355
 30
0.0
 11
0.0
 21
0.236
 31
0.0
210
0.0
220
0.0
230
1.0
 40
1.0
 41
0.0
 42
6.283185307179586
  0
ELLIPSE
  5
C4
330
18
100
AcDbEntity
  8
PLATE_TOP-LOCK
100
AcDbEllipse
 10
12.325
 20
-1.2355
 30
0.0
 11
0.0
 21
0.06
 31
0.0
210
0.0
220
0.0
230
1.0
 40
0.8
 41
0.0
 42
6.283185307179586
  0
ELLIPSE
  5
C5
330
18
100
AcDbEntity
  8
PLATE_TOP-LOCK
100
AcDbEllipse
 10
13.2625
 20
-0.8355
 30
0.0
 11
0.0
 21
0.236
 31
0.0
210
0.0
220
0.0
230
1.0
 40
1.0
 41
0.0
 42
6.283185307179586
  0
ELLIPSE
  5
C6
330
18
100
AcDbEntity
  8
PLATE_TOP-LOCK
100
AcDbEllipse
 10
13.2625
 20
-1.2355
 30
0.0
 11
0.0
 21
0.06
 31
0.0
210
0.0
220
0.0
230
1.0
 40
0.8
 41
0.0
 42
6.283185307179586
  0
ELLIPSE
  5
C7
330
18
100
AcDbEntity
  8
PLATE_TOP-LOCK
100
AcDbEllipse
 10
13.2625
 20
-0.023
 30
0.0
 11
0.0
 21
0.236
 31
0.0
210
0.0
220
0.0
230
1.0
 40
1.0
 41
0.0
 42
6.283185307179586
  0
ELLIPSE
  5
C8
330
18
100
AcDbEntity
  8
PLATE_TOP-LOCK
100
AcDbEllipse
 10
13.2625
 20
-0.423
 30
0.0
 11
0.0
 21
0.06
 31
0.0
210
0.0
220
0.0
230
1.0
 40
0.8
 41
0.0
 42
6.283185307179586
  0
ELLIPSE
  5
C9
330
18
100
AcDbEntity
  8
PLATE_TOP-LOCK
100
AcDbEllipse
 10
12.325
 20
-0.023
 30
0.0
 11
0.0
 21
0.236
 31
0.0
210
0.0
220
0.0
230
1.0
 40
1.0
 41
0.0
 42
6.283185307179586
  0
ELLIPSE
  5
CA
330
18
100
AcDbEntity
  8
PLATE_TOP-LOCK
100
AcDbEllipse
 10
12.325
 20
-0.423
 30
0.0
 11
0.0
 21
0.06
 31
0.0
210
0.0
220
0.0
230
1.0
 40
0.8
 41
0.0
 42
6.283185307179586
  0
ELLIPSE
  5
CB
330
18
100
AcDbEntity
  8
PLATE_TOP-LOCK
100
AcDbEllipse
 10
11.3875
 20
-0.023
 30
0.0
 11
0.0
 21
0.236
 31
0.0
210
0.0
220
0.0
230
1.0
 40
1.0
 41
0.0
 42
6.283185307179586
  0
ELLIPSE
  5
CC
330
18
100
AcDbEntity
  8
PLATE_TOP-LOCK
100
AcDbEllipse
 10
11.3875
 20
-0.423
 30
0.0
 11
0.0
 21
0.06
 31
0.0
210
0.0
220
0.0
230
1.0
 40
0.8
 41
0.0
 42
6.283185307179586
  0
ELLIPSE
  5
CD
330
18
100
AcDbEntity
  8
PLATE_TOP-LOCK
100
AcDbEllipse
 10
-2.650104
 20
-1.57728
 30
0.0
 11
0.0
 21
0.0925
 31
0.0
210
0.0
220
0.0
230
1.0
 40
1.0
 41
0.0
 42
6.283185307179586
  0
ELLIPSE
  5
CE
330
18
100
AcDbEntity
  8
PLATE_TOP-LOCK
100
AcDbEllipse
 10
14.160328
 20
-1.57728
 30
0.0
 11
0.0
 21
0.0925
 31
0.0
210
0.0
220
0.0
230
1.0
 40
1.0
 41
0.0
 42
6.283185307179586
  0
ENDSEC
  0
SECTION
  2
OBJECTS
  0
DICTIONARY
  5
C
330
0
100
AcDbDictionary
  3
ACAD_GROUP
350
D
  3
ACAD_LAYOUT
350
F1
  3
ACAD_MATERIAL
350
10D
  3
ACAD_MLEADERSTYLE
350
132
  3
ACAD_MLINESTYLE
350
1B
  3
ACAD_SCALELIST
350
CF
  3
ACAD_VISUALSTYLE
350
F4
  3
ACDBHEADERROUNDTRIPXREC
350
111
  3
ACDBVARIABLEDICTIONARY
350
130
  0
DICTIONARY
  5
138
330
8
100
AcDbDictionary
280
     1
  3
ACAD_XREC_ROUNDTRIP
360
139
  0
DICTIONARY
  5
D
102
{ACAD_REACTORS
330
C
102
}
330
C
100
AcDbDictionary
  0
DICTIONARY
  5
F1
102
{ACAD_REACTORS
330
C
102
}
330
C
100
AcDbDictionary
  0
DICTIONARY
  5
10D
102
{ACAD_REACTORS
330
C
102
}
330
C
100
AcDbDictionary
  3
BYBLOCK
350
10F
  3
BYLAYER
350
10E
  3
GLOBAL
350
110
  0
DICTIONARY
  5
132
102
{ACAD_REACTORS
330
C
102
}
330
C
100
AcDbDictionary
  0
DICTIONARY
  5
1B
102
{ACAD_REACTORS
330
C
102
}
330
C
100
AcDbDictionary
  3
STANDARD
350
1C
  0
DICTIONARY
  5
CF
102
{ACAD_REACTORS
330
C
102
}
330
C
100
AcDbDictionary
  3
A0
350
D0
  3
A1
350
D1
  3
A2
350
D2
  3
A3
350
D3
  3
A4
350
D4
  3
A5
350
D5
  3
A6
350
D6
  3
A7
350
D7
  3
A8
350
D8
  3
A9
350
D9
  3
B0
350
DA
  3
B1
350
DB
  3
B2
350
DC
  3
B3
350
DD
  3
B4
350
DE
  3
B5
350
DF
  3
B6
350
E0
  3
B7
350
E1
  3
B8
350
E2
  3
B9
350
E3
  3
C0
350
E4
  3
C1
350
E5
  3
C2
350
E6
  3
C3
350
E7
  3
C4
350
E8
  3
C5
350
E9
  3
C6
350
EA
  3
C7
350
EB
  3
C8
350
EC
  3
C9
350
ED
  3
D0
350
EE
  3
D1
350
EF
  3
D2
350
F0
  0
DICTIONARY
  5
F4
102
{ACAD_REACTORS
330
C
102
}
330
C
100
AcDbDictionary
  3
2DWIREFRAME
350
F9
  3
BASIC
350
FC
  3
BRIGHTEN
350
100
  3
COLORCHANGE
350
104
  3
CONCEPTUAL
350
FE
  3
DIM
350
FF
  3
EDGECOLOROFF
350
107
  3
FACEPATTERN
350
103
  3
FLAT
350
F5
  3
FLATWITHEDGES
350
F6
  3
GOURAUD
350
F7
  3
GOURAUDWITHEDGES
350
F8
  3
HIDDEN
350
FB
  3
JITTEROFF
350
105
  3
LINEPATTERN
350
102
  3
OVERHANGOFF
350
106
  3
REALISTIC
350
FD
  3
SHADED
350
10C
  3
SHADED_WITH_EDGES
350
10B
  3
SHADES_OF_GRAY
350
108
  3
SKETCHY
350
109
  3
THICKEN
350
101
  3
WIREFRAME
350
FA
  3
X-RAY
350
10A
  0
DICTIONARY
  5
111
102
{ACAD_REACTORS
330
C
102
}
330
C
100
AcDbDictionary
  3
CEPSNTYPE
350
119
  3
DIMSTYLEDATA
350
12F
  3
FINGERPRINTGUID
350
11A
  3
HYPERLINKBASE
350
114
  3
INSUNITS
350
118
  3
LAYOUTDICT
350
116
  3
LWETCUNION
350
117
  3
PSVPSCALE
350
11C
  3
PUCSBASE
350
11F
  3
PUCSORGBACK
350
125
  3
PUCSORGBOTTOM
350
121
  3
PUCSORGFRONT
350
124
  3
PUCSORGLEFT
350
122
  3
PUCSORGRIGHT
350
123
  3
PUCSORGTOP
350
120
  3
PUCSORTHOREF
350
11D
  3
PUCSORTHOVIEW
350
11E
  3
STYLESHEET
350
115
  3
TSTACKALIGN
350
112
  3
TSTACKSIZE
350
113
  3
UCSBASE
350
128
  3
UCSORGBACK
350
12E
  3
UCSORGBOTTOM
350
12A
  3
UCSORGFRONT
350
12D
  3
UCSORGLEFT
350
12B
  3
UCSORGRIGHT
350
12C
  3
UCSORGTOP
350
129
  3
UCSORTHOREF
350
126
  3
UCSORTHOVIEW
350
127
  3
VERSIONGUID
350
11B
  0
DICTIONARY
  5
130
102
{ACAD_REACTORS
330
C
102
}
330
C
100
AcDbDictionary
  3
CANNOSCALE
350
13A
  3
DIMASSOC
350
136
  3
HIDETEXT
350
137
  3
MSLTSCALE
350
133
  0
XRECORD
  5
139
102
{ACAD_REACTORS
330
138
102
}
330
138
100
AcDbXrecord
102
VTR_0.000_0.000_1.000_1.000_VISUALSTYLE
340
F9
102
VTR_0.000_0.000_1.000_1.000_GRIDDISPLAY
 70
     3
102
VTR_0.000_0.000_1.000_1.000_GRIDMAJOR
 70
     5
102
VTR_0.000_0.000_1.000_1.000_DEFAULTLIGHTING
280
     1
102
VTR_0.000_0.000_1.000_1.000_DEFAULTLIGHTINGTYPE
 70
     1
102
VTR_0.000_0.000_1.000_1.000_BRIGHTNESS
141
0.0
102
VTR_0.000_0.000_1.000_1.000_CONTRAST
142
0.0
  0
MATERIAL
  5
10F
102
{ACAD_REACTORS
330
10D
102
}
102
{ACAD_XDICTIONARY
360
13D
102
}
330
10D
100
AcDbMaterial
  1
BYBLOCK
  0
MATERIAL
  5
10E
102
{ACAD_REACTORS
330
10D
102
}
102
{ACAD_XDICTIONARY
360
13B
102
}
330
10D
100
AcDbMaterial
  1
BYLAYER
  0
MATERIAL
  5
110
102
{ACAD_REACTORS
330
10D
102
}
102
{ACAD_XDICTIONARY
360
13F
102
}
330
10D
100
AcDbMaterial
  1
GLOBAL
  0
MLINESTYLE
  5
1C
102
{ACAD_REACTORS
330
1B
102
}
330
1B
100
AcDbMlineStyle
  2
STANDARD
 70
     0
  3

 62
   256
 51
90.0
 52
90.0
 71
     2
 49
0.5
 62
   256
  6
BYLAYER
 49
-0.5
 62
   256
  6
BYLAYER
  0
ACAD_PROXY_OBJECT
  5
D0
102
{ACAD_REACTORS
330
CF
102
}
330
CF
100
AcDbProxyObject
 90
      499
 91
      500
 93
       41
310
903313A31580
  0
ACAD_PROXY_OBJECT
  5
D1
102
{ACAD_REACTORS
330
CF
102
}
330
CF
100
AcDbProxyObject
 90
      499
 91
      500
 93
      105
310
903313A324000000000000004000
  0
ACAD_PROXY_OBJECT
  5
D2
102
{ACAD_REACTORS
330
CF
102
}
330
CF
100
AcDbProxyObject
 90
      499
 91
      500
 93
      105
310
903313A344000000000000104000
  0
ACAD_PROXY_OBJECT
  5
D3
102
{ACAD_REACTORS
330
CF
102
}
330
CF
100
AcDbProxyObject
 90
      499
 91
      500
 93
      105
310
903313A354000000000000144000
  0
ACAD_PROXY_OBJECT
  5
D4
102
{ACAD_REACTORS
330
CF
102
}
330
CF
100
AcDbProxyObject
 90
      499
 91
      500
 93
      105
310
903313A384000000000000204000
  0
ACAD_PROXY_OBJECT
  5
D5
102
{ACAD_REACTORS
330
CF
102
}
330
CF
100
AcDbProxyObject
 90
      499
 91
      500
 93
      113
310
904313A31304000000000000244000
  0
ACAD_PROXY_OBJECT
  5
D6
102
{ACAD_REACTORS
330
CF
102
}
330
CF
100
AcDbProxyObject
 90
      499
 91
      500
 93
      113
310
904313A31364000000000000304000
  0
ACAD_PROXY_OBJECT
  5
D7
102
{ACAD_REACTORS
330
CF
102
}
330
CF
100
AcDbProxyObject
 90
      499
 91
      500
 93
      113
310
904313A32304000000000000344000
  0
ACAD_PROXY_OBJECT
  5
D8
102
{ACAD_REACTORS
330
CF
102
}
330
CF
100
AcDbProxyObject
 90
      499
 91
      500
 93
      113
310
904313A333040000000000003E4000
  0
ACAD_PROXY_OBJECT
  5
D9
102
{ACAD_REACTORS
330
CF
102
}
330
CF
100
AcDbProxyObject
 90
      499
 91
      500
 93
      113
310
904313A34304000000000000444000
  0
ACAD_PROXY_OBJECT
  5
DA
102
{ACAD_REACTORS
330
CF
102
}
330
CF
100
AcDbProxyObject
 90
      499
 91
      500
 93
      113
310
904313A35304000000000000494000
  0
ACAD_PROXY_OBJECT
  5
DB
102
{ACAD_REACTORS
330
CF
102
}
330
CF
100
AcDbProxyObject
 90
      499
 91
      500
 93
      121
310
905313A3130304000000000000594000
  0
ACAD_PROXY_OBJECT
  5
DC
102
{ACAD_REACTORS
330
CF
102
}
330
CF
100
AcDbProxyObject
 90
      499
 91
      500
 93
      105
310
903323A310000000000000010100
  0
ACAD_PROXY_OBJECT
  5
DD
102
{ACAD_REACTORS
330
CF
102
}
330
CF
100
AcDbProxyObject
 90
      499
 91
      500
 93
      105
310
903343A310000000000000410100
  0
ACAD_PROXY_OBJECT
  5
DE
102
{ACAD_REACTORS
330
CF
102
}
330
CF
100
AcDbProxyObject
 90
      499
 91
      500
 93
      105
310
903383A310000000000000810100
  0
ACAD_PROXY_OBJECT
  5
DF
102
{ACAD_REACTORS
330
CF
102
}
330
CF
100
AcDbProxyObject
 90
      499
 91
      500
 93
      113
310
90431303A310000000000000910100
  0
ACAD_PROXY_OBJECT
  5
E0
102
{ACAD_REACTORS
330
CF
102
}
330
CF
100
AcDbProxyObject
 90
      499
 91
      500
 93
      121
310
9053130303A310000000000001650100
  0
ACAD_PROXY_OBJECT
  5
E1
102
{ACAD_REACTORS
330
CF
102
}
330
CF
100
AcDbProxyObject
 90
      499
 91
      500
 93
      257
310
90E312F31323822203D2031272D3022000000000000200FC000000000000284000
  0
ACAD_PROXY_OBJECT
  5
E2
102
{ACAD_REACTORS
330
CF
102
}
330
CF
100
AcDbProxyObject
 90
      499
 91
      500
 93
      249
310
90D312F363422203D2031272D3022000000000000240FC000000000000284000
  0
ACAD_PROXY_OBJECT
  5
E3
102
{ACAD_REACTORS
330
CF
102
}
330
CF
100
AcDbProxyObject
 90
      499
 91
      500
 93
      249
310
90D312F333222203D2031272D3022000000000000280FC000000000000284000
  0
ACAD_PROXY_OBJECT
  5
E4
102
{ACAD_REACTORS
330
CF
102
}
330
CF
100
AcDbProxyObject
 90
      499
 91
      500
 93
      249
310
90D312F313622203D2031272D30220000000000002C0FC000000000000284000
  0
ACAD_PROXY_OBJECT
  5
E5
102
{ACAD_REACTORS
330
CF
102
}
330
CF
100
AcDbProxyObject
 90
      499
 91
      500
 93
      249
310
90D332F333222203D2031272D30220000000000002E0FC000000000000284000
  0
ACAD_PROXY_OBJECT
  5
E6
102
{ACAD_REACTORS
330
CF
102
}
330
CF
100
AcDbProxyObject
 90
      499
 91
      500
 93
      241
310
90C312F3822203D2031272D3022000000000000300FC000000000000284000
  0
ACAD_PROXY_OBJECT
  5
E7
102
{ACAD_REACTORS
330
CF
102
}
330
CF
100
AcDbProxyObject
 90
      499
 91
      500
 93
      249
310
90D332F313622203D2031272D3022000000000000320FC000000000000284000
  0
ACAD_PROXY_OBJECT
  5
E8
102
{ACAD_REACTORS
330
CF
102
}
330
CF
100
AcDbProxyObject
 90
      499
 91
      500
 93
      241
310
90C312F3422203D2031272D3022000000000000340FC000000000000284000
  0
ACAD_PROXY_OBJECT
  5
E9
102
{ACAD_REACTORS
330
CF
102
}
330
CF
100
AcDbProxyObject
 90
      499
 91
      500
 93
      241
310
90C332F3822203D2031272D3022000000000000360FC000000000000284000
  0
ACAD_PROXY_OBJECT
  5
EA
102
{ACAD_REACTORS
330
CF
102
}
330
CF
100
AcDbProxyObject
 90
      499
 91
      500
 93
      241
310
90C312F3222203D2031272D3022000000000000380FC000000000000284000
  0
ACAD_PROXY_OBJECT
  5
EB
102
{ACAD_REACTORS
330
CF
102
}
330
CF
100
AcDbProxyObject
 90
      499
 91
      500
 93
      241
310
90C332F3422203D2031272D30220000000000003A0FC000000000000284000
  0
ACAD_PROXY_OBJECT
  5
EC
102
{ACAD_REACTORS
330
CF
102
}
330
CF
100
AcDbProxyObject
 90
      499
 91
      500
 93
      161
310
90A3122203D2031272D30224000000000000284000
  0
ACAD_PROXY_OBJECT
  5
ED
102
{ACAD_REACTORS
330
CF
102
}
330
CF
100
AcDbProxyObject
 90
      499
 91
      500
 93
      257
310
90E312D312F3222203D2031272D30220000000000003E0FC000000000000284000
  0
ACAD_PROXY_OBJECT
  5
EE
102
{ACAD_REACTORS
330
CF
102
}
330
CF
100
AcDbProxyObject
 90
      499
 91
      500
 93
      225
310
90A3322203D2031272D302200000000000002100000000000000284000
  0
ACAD_PROXY_OBJECT
  5
EF
102
{ACAD_REACTORS
330
CF
102
}
330
CF
100
AcDbProxyObject
 90
      499
 91
      500
 93
      225
310
90A3622203D2031272D302200000000000006100000000000000284000
  0
ACAD_PROXY_OBJECT
  5
F0
102
{ACAD_REACTORS
330
CF
102
}
330
CF
100
AcDbProxyObject
 90
      499
 91
      500
 93
      249
310
90D31272D3022203D2031272D30220000000000000A100000000000000284000
  0
ACAD_PROXY_OBJECT
  5
F9
102
{ACAD_REACTORS
330
F4
102
}
330
F4
100
AcDbProxyObject
 90
      499
 91
      501
 93
      436
310
42CC9915DA5C99599C985B595049028333333333333E33F0000000000000F90107901411070040501600405405064090741402480A0340
1001
ACAD
1000
AcDbSavedByObjectVersion
1070
     0
  0
ACAD_PROXY_OBJECT
  5
FC
102
{ACAD_REACTORS
330
F4
102
}
330
F4
100
AcDbProxyObject
 90
      499
 91
      501
 93
      388
310
4150985CDA58D07406404333333333333E33F0000000000000F90107A41107004050150841D405064090741402480A0350
1001
ACAD
1000
AcDbSavedByObjectVersion
1070
     0
  0
ACAD_PROXY_OBJECT
  5
100
102
{ACAD_REACTORS
330
F4
102
}
330
F4
100
AcDbProxyObject
 90
      499
 91
      501
 93
      428
310
42109C9A59DA1D195B90C409028333333333333E33F0000000000000F9010790141107004050150841D405064090741402480A029950
1001
ACAD
1000
AcDbSavedByObjectVersion
1070
     0
  0
ACAD_PROXY_OBJECT
  5
104
102
{ACAD_REACTORS
330
F4
102
}
330
F4
100
AcDbProxyObject
 90
      499
 91
      501
 93
      452
310
42D0DBDB1BDC90DA185B99D95104090240C333333333333E33F0000000000000F90108901411070040501508421405064090741402480A0350
1001
ACAD
1000
AcDbSavedByObjectVersion
1070
     0
  0
ACAD_PROXY_OBJECT
  5
FE
102
{ACAD_REACTORS
330
F4
102
}
330
F4
100
AcDbProxyObject
 90
      499
 91
      501
 93
      500
310
4290DBDB98D95C1D1D585B10940D028333333333333E33F0000000000000F90107902409070040501000000000018199010841D405064090740C02480A0340
1001
ACAD
1000
AcDbSavedByObjectVersion
1070
     0
  0
ACAD_PROXY_OBJECT
  5
FF
102
{ACAD_REACTORS
330
F4
102
}
330
F4
100
AcDbProxyObject
 90
      499
 91
      501
 93
      412
310
40D11A5B50B409028333333333333E33F0000000000000F9010790141107004050150841D405064090741402480A02677FFFFFD0
1001
ACAD
1000
AcDbSavedByObjectVersion
1070
     0
  0
ACAD_PROXY_OBJECT
  5
107
102
{ACAD_REACTORS
330
F4
102
}
330
F4
100
AcDbProxyObject
 90
      499
 91
      501
 93
      452
310
43115919D950DBDB1BDC93D999916409028333333333333E33F0000000000000F9010790141107004050150841D405064090741402480A0350
1001
ACAD
1000
AcDbSavedByObjectVersion
1070
     0
  0
ACAD_PROXY_OBJECT
  5
103
102
{ACAD_REACTORS
330
F4
102
}
330
F4
100
AcDbProxyObject
 90
      499
 91
      501
 93
      444
310
42D19858D95C185D1D195C9B90F409028333333333333E33F0000000000000F9010790141107004050150841D405064090741402480A0350
1001
ACAD
1000
AcDbSavedByObjectVersion
1070
     0
  0
ACAD_PROXY_OBJECT
  5
F5
102
{ACAD_REACTORS
330
F4
102
}
330
F4
100
AcDbProxyObject
 90
      499
 91
      501
 93
      380
310
41119B185D240901404333333333333E33F0000000000000F9010740A907004050150841D405064090741402480A1B50
1001
ACAD
1000
AcDbSavedByObjectVersion
1070
     0
  0
ACAD_PROXY_OBJECT
  5
F6
102
{ACAD_REACTORS
330
F4
102
}
330
F4
100
AcDbProxyObject
 90
      499
 91
      501
 93
      468
310
43519B185D15DA5D1A115919D95CD0140901404333333333333E33F0000000000000F90107409019070040501600405405064090741402480A1B50
1001
ACAD
1000
AcDbSavedByObjectVersion
1070
     0
  0
ACAD_PROXY_OBJECT
  5
F7
102
{ACAD_REACTORS
330
F4
102
}
330
F4
100
AcDbProxyObject
 90
      499
 91
      501
 93
      404
310
41D1DBDD5C985D5910240902404333333333333E33F0000000000000F9010740A9070040501641D405064090741402480A1B50
1001
ACAD
1000
AcDbSavedByObjectVersion
1070
     0
  0
ACAD_PROXY_OBJECT
  5
F8
102
{ACAD_REACTORS
330
F4
102
}
330
F4
100
AcDbProxyObject
 90
      499
 91
      501
 93
      492
310
4411DBDD5C985D5915DA5D1A115919D95CD0340902404333333333333E33F0000000000000F90107409019070040501600405405064090741402480A1B50
1001
ACAD
1000
AcDbSavedByObjectVersion
1070
     0
  0
ACAD_PROXY_OBJECT
  5
FB
102
{ACAD_REACTORS
330
F4
102
}
330
F4
100
AcDbProxyObject
 90
      499
 91
      501
 93
      476
310
41921A5919195B90640502408333333333333E33F0000000000000F901079024090700405020000000000001110200405405064090740C02480A0340
1001
ACAD
1000
AcDbSavedByObjectVersion
1070
     0
  0
ACAD_PROXY_OBJECT
  5
105
102
{ACAD_REACTORS
330
F4
102
}
330
F4
100
AcDbProxyObject
 90
      499
 91
      501
 93
      428
310
42529A5D1D195C93D999914409028333333333333E33F0000000000000F9010790141107004050150A41D405064090741402480A0350
1001
ACAD
1000
AcDbSavedByObjectVersion
1070
     0
  0
ACAD_PROXY_OBJECT
  5
102
102
{ACAD_REACTORS
330
F4
102
}
330
F4
100
AcDbProxyObject
 90
      499
 91
      501
 93
      444
310
42D31A5B995C185D1D195C9B90E409028333333333333E33F0000000000000F9010790141107004050750841D405064090741402483A0350
1001
ACAD
1000
AcDbSavedByObjectVersion
1070
     0
  0
ACAD_PROXY_OBJECT
  5
106
102
{ACAD_REACTORS
330
F4
102
}
330
F4
100
AcDbProxyObject
 90
      499
 91
      501
 93
      444
310
42D3DD995C9A185B99D3D999915409028333333333333E33F0000000000000F9010790141107004050150941D405064090741402480A0350
1001
ACAD
1000
AcDbSavedByObjectVersion
1070
     0
  0
ACAD_PROXY_OBJECT
  5
FD
102
{ACAD_REACTORS
330
F4
102
}
330
F4
100
AcDbProxyObject
 90
      499
 91
      501
 93
      428
310
425499585B1A5CDD1A58D08409038333333333333E33F0000000000000F9010740A907004050150800405405064090740C02480A1B40
1001
ACAD
1000
AcDbSavedByObjectVersion
1070
     0
  0
ACAD_PROXY_OBJECT
  5
10C
102
{ACAD_REACTORS
330
F4
102
}
330
F4
100
AcDbProxyObject
 90
      499
 91
      501
 93
      420
310
4194DA1859195911B40902404333333333333E33F0000000000000F9010740A41107004050150800405405064090840C02480A0B40
1001
ACAD
1000
AcDbSavedByObjectVersion
1070
     0
  0
ACAD_PROXY_OBJECT
  5
10B
102
{ACAD_REACTORS
330
F4
102
}
330
F4
100
AcDbProxyObject
 90
      499
 91
      501
 93
      516
310
4454DA18591959081DDA5D1A08195919D95CD1A40902404333333333333E33F0000000000000F901074090142907004050250800405405064090740C02480A0B40
1001
ACAD
1000
AcDbSavedByObjectVersion
1070
     0
  0
ACAD_PROXY_OBJECT
  5
108
102
{ACAD_REACTORS
330
F4
102
}
330
F4
100
AcDbProxyObject
 90
      499
 91
      501
 93
      532
310
4394DA1859195CC81BD98811DC985E5174090240C333333333333E33F0000000000000F901079024090741D01000000000000111010841D405064090740C02480A0340
1001
ACAD
1000
AcDbSavedByObjectVersion
1070
     0
  0
ACAD_PROXY_OBJECT
  5
109
102
{ACAD_REACTORS
330
F4
102
}
330
F4
100
AcDbProxyObject
 90
      499
 91
      501
 93
      476
310
41D4DAD95D18DA1E51840502408333333333333E33F0000000000000F901079024090741D01000000000000111010B41D405064090741802480A0340
1001
ACAD
1000
AcDbSavedByObjectVersion
1070
     0
  0
ACAD_PROXY_OBJECT
  5
101
102
{ACAD_REACTORS
330
F4
102
}
330
F4
100
AcDbProxyObject
 90
      499
 91
      501
 93
      412
310
41D51A1A58DAD95B90D409028333333333333E33F0000000000000F9010790141107004050150C41D405064090741402480A0350
1001
ACAD
1000
AcDbSavedByObjectVersion
1070
     0
  0
ACAD_PROXY_OBJECT
  5
FA
102
{ACAD_REACTORS
330
F4
102
}
330
F4
100
AcDbProxyObject
 90
      499
 91
      501
 93
      420
310
4255DA5C99599C985B595059028333333333333E33F0000000000000F90107901411070040501600405405064090740C02480A0340
1001
ACAD
1000
AcDbSavedByObjectVersion
1070
     0
  0
ACAD_PROXY_OBJECT
  5
10A
102
{ACAD_REACTORS
330
F4
102
}
330
F4
100
AcDbProxyObject
 90
      499
 91
      501
 93
      404
310
41560B54985E51940902404000000000000E03F0000000000000F9010740501907004050150841D405064090740C02480A1B40
1001
ACAD
1000
AcDbSavedByObjectVersion
1070
     0
  0
XRECORD
  5
119
102
{ACAD_REACTORS
330
111
102
}
330
111
100
AcDbXrecord
 90
        0
  0
XRECORD
  5
12F
102
{ACAD_REACTORS
330
111
102
}
330
111
100
AcDbXrecord
1000
DSTYLE
1002
{
1070
   279
 70
     2
1070
   340
340
F
1002
}
  0
XRECORD
  5
11A
102
{ACAD_REACTORS
330
111
102
}
330
111
100
AcDbXrecord
  1
{BABE4005-29EA-4CBD-9E75-52D7FD1A712D}
  0
XRECORD
  5
114
102
{ACAD_REACTORS
330
111
102
}
330
111
100
AcDbXrecord
  1

  0
XRECORD
  5
118
102
{ACAD_REACTORS
330
111
102
}
330
111
100
AcDbXrecord
 90
        0
  0
XRECORD
  5
116
102
{ACAD_REACTORS
330
111
102
}
330
111
100
AcDbXrecord
340
F1
  0
XRECORD
  5
117
102
{ACAD_REACTORS
330
111
102
}
330
111
100
AcDbXrecord
 90
    10781
  0
XRECORD
  5
11C
102
{ACAD_REACTORS
330
111
102
}
330
111
100
AcDbXrecord
 40
0.0
  0
XRECORD
  5
11F
102
{ACAD_REACTORS
330
111
102
}
330
111
100
AcDbXrecord
340
0
  0
XRECORD
  5
125
102
{ACAD_REACTORS
330
111
102
}
330
111
100
AcDbXrecord
 10
0.0
 20
0.0
 30
0.0
  0
XRECORD
  5
121
102
{ACAD_REACTORS
330
111
102
}
330
111
100
AcDbXrecord
 10
0.0
 20
0.0
 30
0.0
  0
XRECORD
  5
124
102
{ACAD_REACTORS
330
111
102
}
330
111
100
AcDbXrecord
 10
0.0
 20
0.0
 30
0.0
  0
XRECORD
  5
122
102
{ACAD_REACTORS
330
111
102
}
330
111
100
AcDbXrecord
 10
0.0
 20
0.0
 30
0.0
  0
XRECORD
  5
123
102
{ACAD_REACTORS
330
111
102
}
330
111
100
AcDbXrecord
 10
0.0
 20
0.0
 30
0.0
  0
XRECORD
  5
120
102
{ACAD_REACTORS
330
111
102
}
330
111
100
AcDbXrecord
 10
0.0
 20
0.0
 30
0.0
  0
XRECORD
  5
11D
102
{ACAD_REACTORS
330
111
102
}
330
111
100
AcDbXrecord
340
0
  0
XRECORD
  5
11E
102
{ACAD_REACTORS
330
111
102
}
330
111
100
AcDbXrecord
 70
     0
  0
XRECORD
  5
115
102
{ACAD_REACTORS
330
111
102
}
330
111
100
AcDbXrecord
  1

  0
XRECORD
  5
112
102
{ACAD_REACTORS
330
111
102
}
330
111
100
AcDbXrecord
 90
        1
  0
XRECORD
  5
113
102
{ACAD_REACTORS
330
111
102
}
330
111
100
AcDbXrecord
 90
       70
  0
XRECORD
  5
128
102
{ACAD_REACTORS
330
111
102
}
330
111
100
AcDbXrecord
340
0
  0
XRECORD
  5
12E
102
{ACAD_REACTORS
330
111
102
}
330
111
100
AcDbXrecord
 10
0.0
 20
0.0
 30
0.0
  0
XRECORD
  5
12A
102
{ACAD_REACTORS
330
111
102
}
330
111
100
AcDbXrecord
 10
0.0
 20
0.0
 30
0.0
  0
XRECORD
  5
12D
102
{ACAD_REACTORS
330
111
102
}
330
111
100
AcDbXrecord
 10
0.0
 20
0.0
 30
0.0
  0
XRECORD
  5
12B
102
{ACAD_REACTORS
330
111
102
}
330
111
100
AcDbXrecord
 10
0.0
 20
0.0
 30
0.0
  0
XRECORD
  5
12C
102
{ACAD_REACTORS
330
111
102
}
330
111
100
AcDbXrecord
 10
0.0
 20
0.0
 30
0.0
  0
XRECORD
  5
129
102
{ACAD_REACTORS
330
111
102
}
330
111
100
AcDbXrecord
 10
0.0
 20
0.0
 30
0.0
  0
XRECORD
  5
126
102
{ACAD_REACTORS
330
111
102
}
330
111
100
AcDbXrecord
340
0
  0
XRECORD
  5
127
102
{ACAD_REACTORS
330
111
102
}
330
111
100
AcDbXrecord
 70
     0
  0
XRECORD
  5
11B
102
{ACAD_REACTORS
330
111
102
}
330
111
100
AcDbXrecord
  1
{FAEB1C32-E019-11D5-929B-00C0DF256EC4}
  0
DICTIONARYVAR
  5
13A
102
{ACAD_REACTORS
330
130
102
}
330
130
100
DictionaryVariables
280
     0
  1
1:1
  0
DICTIONARYVAR
  5
136
102
{ACAD_REACTORS
330
130
102
}
330
130
100
DictionaryVariables
280
     0
  1
2
  0
DICTIONARYVAR
  5
137
102
{ACAD_REACTORS
330
130
102
}
330
130
100
DictionaryVariables
280
     0
  1
1
  0
DICTIONARYVAR
  5
133
102
{ACAD_REACTORS
330
130
102
}
330
130
100
DictionaryVariables
280
     0
  1
0
  0
DICTIONARY
  5
13D
330
10F
100
AcDbDictionary
280
     1
  3
ACAD_XREC_ROUNDTRIP
360
13E
  0
DICTIONARY
  5
13B
330
10E
100
AcDbDictionary
280
     1
  3
ACAD_XREC_ROUNDTRIP
360
13C
  0
DICTIONARY
  5
13F
330
110
100
AcDbDictionary
280
     1
  3
ACAD_XREC_ROUNDTRIP
360
140
  0
XRECORD
  5
13E
102
{ACAD_REACTORS
330
13D
102
}
330
13D
100
AcDbXrecord
102
MATERIAL
148
0.0
149
0.0
149
0.0
 93
        0
 94
      127
282
     0
 72
     1
 77
     1
171
     1
175
     1
179
     1
273
     0
  0
XRECORD
  5
13C
102
{ACAD_REACTORS
330
13B
102
}
330
13B
100
AcDbXrecord
102
MATERIAL
148
0.0
149
0.0
149
0.0
 93
        0
 94
      127
282
     0
 72
     1
 77
     1
171
     1
175
     1
179
     1
273
     0
  0
XRECORD
  5
140
102
{ACAD_REACTORS
330
13F
102
}
330
13F
100
AcDbXrecord
102
MATERIAL
148
0.0
149
0.0
149
0.0
 93
        0
 94
      127
282
     0
 72
     1
 77
     1
171
     1
175
     1
179
     1
273
     0
  0
ENDSEC
  0
EOF
